<?xml version="1.0" encoding="UTF-8"?><svg id="Layer_2" xmlns="http://www.w3.org/2000/svg" viewBox="0 0 15.9 18.52"><g id="Layer_1-2"><path d="M15.44,13.93c-1.84-1.73-3.68-3.47-5.51-5.2,1.76-2.1,3.57-4.16,5.46-6.15,1.33-1.4-.79-3.53-2.12-2.12-1.9,2.01-3.73,4.09-5.51,6.22-1.72-1.62-3.44-3.25-5.16-4.87C1.18.48-.95,2.6.46,3.93c1.79,1.69,3.58,3.38,5.37,5.07-1.9,2.37-3.74,4.79-5.49,7.27-.47.66-.12,1.67.54,2.05.75.44,1.58.13,2.05-.54,1.62-2.3,3.32-4.53,5.08-6.73l5.3,5c1.4,1.32,3.53-.79,2.12-2.12Z"/></g></svg>