<?xml version="1.0" encoding="UTF-8"?><svg id="Layer_2" xmlns="http://www.w3.org/2000/svg" viewBox="0 0 41.41 50.58"><g id="Layer_1-2"><path d="M41.19,44.51c-5.05-6.55-9.87-13.27-14.49-20.12,4.88-5.81,9.57-11.79,14.05-17.93,1.14-1.56-1.46-3.06-2.59-1.51-4.2,5.77-8.6,11.4-13.18,16.87C20.42,14.92,16.08,7.9,11.98.73c-.96-1.67-3.55-.17-2.59,1.51,4.28,7.46,8.8,14.78,13.56,21.94C15.86,32.5,8.36,40.47.46,48.03c-1.4,1.34.73,3.46,2.12,2.12,7.76-7.43,15.12-15.25,22.11-23.41,4.44,6.56,9.08,13,13.91,19.28.5.65,1.28.98,2.05.54.64-.36,1.03-1.41.54-2.05Z"/></g></svg>