<?xml version="1.0" encoding="UTF-8"?><svg id="Layer_2" xmlns="http://www.w3.org/2000/svg" viewBox="0 0 87.95 33.3"><g id="Layer_1-2"><path d="M87.57,11.89C79.6,3.06,66.57-2.37,54.77,1.02c-7.16,2.06-12.48,7.2-17.25,12.68s-9.55,11.87-16.43,15.03c-6.01,2.76-15.03,2.14-18.19-4.57-.82-1.75-3.56-.52-2.74,1.22,2.76,5.86,9.36,8.32,15.52,7.87,7.29-.54,13.28-5.57,18.06-10.69,5.19-5.56,9.6-12.18,16.21-16.21,5.35-3.26,11.69-3.98,17.77-2.74,6.7,1.37,12.95,5.1,17.52,10.15,1.29,1.43,3.63-.45,2.33-1.89h0Z"/></g></svg>