<?xml version="1.0" encoding="UTF-8"?><svg id="Layer_2" xmlns="http://www.w3.org/2000/svg" viewBox="0 0 29.33 49.46"><g id="Layer_1-2"><path d="M19.13,46.51c-5.18-1.43-9.64-4.94-12.2-9.68-.65-1.21-1.4-2.66-1.27-4.08.12-1.25.94-2.32,1.94-3.04,2.63-1.92,6.24-1.37,9.26-.99l-1.45-1.9c-.72,1.89-2.83,2.67-4.71,2.67-2.18,0-4.14-.95-5.46-2.69-1.67-2.2-2.21-5.07-2.23-7.78-.02-2-.04-5.54,1.82-6.88,1.17-.85,2.54.26,3.53.92,1.27.85,2.47,1.79,3.72,2.67,2.44,1.73,5.06,3.19,8.09,3.49,2.52.25,5.23-.38,7.08-2.19s2.4-4.48,1.91-6.98C27.78,2.96,20.26,1.02,14.14.02c-1.54-.25-2.8,1.91-1.16,2.74,1.94.98,3.89,1.97,5.83,2.95,1.72.87,3.24-1.72,1.51-2.59-1.94-.98-3.89-1.97-5.83-2.95l-1.16,2.74c3.13.51,6.43,1.01,9.18,2.69,2.26,1.38,4.06,3.93,3.81,6.68s-2.88,4.08-5.47,3.99c-3.17-.11-5.83-2.06-8.29-3.86-2.26-1.65-5.09-4.32-8.14-3.39-2.57.78-3.77,3.71-4.15,6.12-.85,5.39-.01,12.22,4.77,15.63,4.28,3.05,11.26,2.08,13.25-3.15.39-1.02-.58-1.79-1.45-1.9-3.75-.48-7.85-.77-11.06,1.61s-3.77,5.81-2.28,9.28c2.66,6.24,8.31,10.98,14.82,12.78,1.86.51,2.66-2.38.8-2.89h0Z"/></g></svg>