<?xml version="1.0" encoding="UTF-8"?>
<svg id="Layer_1" data-name="Layer 1" xmlns="http://www.w3.org/2000/svg" viewBox="0 0 4179.92 928.19">
  <defs>
    <style>
      .cls-1 {
        fill: #0d0c22;
      }

      .cls-2, .cls-3 {
        fill: #59262f;
      }

      .cls-3 {
        fill-rule: evenodd;
      }
    </style>
  </defs>
  <polygon class="cls-1" points="572.11 219.34 571.48 218.98 570.03 218.56 572.11 219.34 572.11 219.34"/>
  <path class="cls-1" d="M581.24,284.59l-.7.19.7-.19Z"/>
  <polygon class="cls-1" points="572.38 219.25 572.12 219.19 572.12 219.36 572.38 219.25 572.38 219.25"/>
  <polygon class="cls-1" points="572.11 219.36 572.21 219.36 572.21 219.3 572.11 219.36"/>
  <polygon class="cls-1" points="580.68 284.48 581.73 283.86 582.14 283.66 582.48 283.27 580.68 284.47 580.68 284.48"/>
  <polygon class="cls-1" points="573.94 220.77 572.9 219.8 572.21 219.42 573.93 220.79 573.94 220.77"/>
  <polygon class="cls-1" points="314.31 853.8 312.22 855.42 312.86 855 314.31 853.8"/>
  <polygon class="cls-1" points="465.06 824.14 464.71 826.69 464.92 825.9 465.06 824.14"/>
  <polygon class="cls-1" points="449.44 853.79 447.35 855.42 447.98 854.99 449.44 853.79"/>
  <polygon class="cls-1" points="208.12 860.86 205.92 859.82 207.7 860.7 208.12 860.86"/>
  <polygon class="cls-1" points="184.23 837.97 183.37 835.21 184.21 837.93 184.23 837.97"/>
  <polygon class="cls-2" points="345.21 429.89 339.16 434.15 332.96 438.1 323.23 433.45 318.16 440.21 311.23 442.35 305.71 448.53 298.61 450.36 291.75 452.97 283.95 452.15 276.68 452.94 269.22 452.52 262.96 458.62 255.2 455.81 247.94 455.6 241.04 459.85 233.69 458.13 226.47 458.26 218.93 458.15 211.09 462.14 203.81 457.82 196.3 456.91 188.6 457.03 181.61 453.26 174.05 452.5 165.16 450.06 168.38 457.54 172.26 464.36 168.86 471.89 172.41 478.75 171.06 486.09 174.96 492.91 173.87 500.21 171.49 507.65 171.2 514.88 177 521.52 174.74 528.94 175.13 536.11 174.28 543.39 177.69 550.26 181.31 557.11 176.31 564.8 182.3 571.42 179.87 578.86 183.23 585.74 182.08 593.05 183.42 600.12 183.94 607.27 179.69 614.89 186.82 621.39 185.6 628.71 186.36 635.84 187.76 642.91 185.37 650.35 190.89 657.01 188.5 664.45 189.9 671.51 189.93 678.72 187.78 686.13 190.6 693.06 188.3 700.49 192.74 707.26 190.53 714.69 194.46 721.51 194.54 728.71 196.91 735.68 191.35 743.43 198.4 749.95 198.88 757.11 195.79 764.62 195.33 771.87 199.29 778.69 203.21 785.52 196.82 793.35 204.32 799.4 204.33 806.46 206.71 812.99 211.37 818.25 213.21 825.56 218.31 830.53 223.54 835.43 228.84 840.67 235.96 842.69 243.79 841.2 250.22 844.15 257.07 849.42 264.14 846.8 271.25 845.06 278 850.79 285.18 847.32 292.16 848.57 299.33 844.9 306.23 848.33 313.22 849.4 320.27 850.06 327.8 846.75 335.32 845.84 342.94 848.07 350.61 850.9 358.12 849.52 365.74 850.76 373.01 843.92 380.56 843.66 388.22 846.34 395.35 845.64 402.44 844.55 407.41 837.54 415.87 839.44 423.78 838.14 429.7 833.4 431.17 824.71 434.05 818.27 442.4 814.81 446.4 808.29 445.88 800.41 442.01 792.74 446.29 785.93 446.37 778.74 448.24 771.71 447.17 764.41 444.8 756.98 447.55 750.03 446.93 742.77 453.22 736.16 453.68 729 447.69 721.23 453.78 714.6 453.04 707.33 455.67 700.37 451.62 692.79 451.04 685.53 453.76 678.58 459.09 671.88 461.46 664.9 457.89 657.35 457.97 650.16 458 642.96 460.2 635.96 458.46 628.59 458.59 621.39 465.1 614.81 466.05 607.7 462.37 600.15 468.18 593.49 462.77 585.78 464.62 578.75 461.91 571.29 466.49 564.52 465.95 557.26 470.79 550.51 468.31 543.07 472.29 536.24 471.8 528.99 474.52 522.04 470.56 514.46 473.42 507.52 472.07 500.19 469.5 492.74 472.72 485.83 473.91 478.73 479.62 472.07 477.5 464.66 479.71 457.66 480.33 450.51 480.47 443.31 476.66 435.75 481.72 429.01 483.47 421.96 483.05 414.08 473.9 412.59 467.23 409.17 460.58 404.98 451.94 411.35 445.71 402.95 438.18 403.26 430.72 404.18 423.04 402.12 415.57 404.39 408.63 408.85 401.3 409.97 394.14 411.91 387.64 416.01 380.4 417.6 373.39 419.98 365.85 421.14 357.72 421.02 350.78 423.86 345.21 429.89"/>
  <polygon class="cls-1" points="63.48 282.61 64.05 283.14 64.42 283.36 63.48 282.62 63.48 282.61"/>
  <path class="cls-2" d="M629.17,252.29l-2-6.27,8.66-8.3,4.28-7.44-16.08-3.4,2.2-7.99-7.82-5.13,1.37-8.06,5.6-11.39-3.44-7.74-15.88,3.71.5-11.49-10.12,2.48-3.34-10.71-7.19-4.19-6.67-2.89-6.9-1.44-5.81-4.78,5.15-9.29-13.51-5.09,5.03-8.25-11.15-5.53,5.96-8.39-4.36-6.66,4.33-8.13-6.27-6.31,1.04-8.08-6.97-6.55,3.91-8.66.04-8.2-11.63-3.19,6.74-11.91-11.32.14-.16-10.02-7.69-1.67-1.66-11.71-11.96,7.82-8.07,1.98-6.83-4.66-8.28-.43-5.15-12.38-5.67-8.12-10.47,12.3-7.22-1.07-6-7.66-7.16-2.02-8.18,4.49-5.46-14.09-8.59,8.27-6.91-4.61-7.07-3.89-8.65,12.84-7.15-2.49-6.97-5.39-6.85-8.45-7.34-1.93-7.44-.08-7.25,2.93-7.63,13.24-6.57-12.46-6.97-3.88-7.33,12.03-6.95-4.62-7.03-2.02-7.05.75-7.03,1.92-6.96,4.76-7.18-7.3-6.94,3.79-6.84,5.05-6.91,1.98-7.07-1.47-7.39-6.34-7.1-.55-7.21-1.79-6.66,5.28-6.59,5.22-6.82,3.19-8.6-15.17-7.06,1.34-6.29,8.05-7.96-6.38-4.96,16.61-8.86-11.75-7.66-2.21-6.46,4.81-5.27,9.81-7.6-1.73-8.56-4.73-4.95,8.87-8.19-2.36-8.86-3.3-5.85,7.2-5.11,7.99-6.53,4.07-9,.68-7.45,4.12,2.81,11.04-15.37-.64,9.35,11.04-3.65,5.78,7.37,5.67-3.18,6.36-7.2,10.99,6.8,4.94,3.81,7.07,14.99-7.61,2.97,7.03,3.25,8.76,9.06-2.2,5.97,5.14,6.09,5.4,8.99-3.89,5.7,7.51,6.1,7.48,9.54-11.24,6.1,4.97,6.09,5.6,8.56-8.79,6.3,4.56,5.75,9.15,7.37-2.13,7.15-.81,6.13,8.63,7.77-6.94,7.21-2.11,7.38-4.97,5.93,14.6,7.64-9.37,7.11-2.32,6.59,7.76,6.9,2.7,6.99.56,7.14,5.97,7.62-9.57,7.37-3.67,7.27,1.39,7.28,1.93,7.27-6.28,7.39,9.87,7.27-2.82,7.28-1.3,7.38,1.89,7.6,6.32,6.64-14.31,7.72,7.5,7.15-2.87,7.61,3.75,7.13-2.83,7.92,6.27,7.48.72,6.96-4.47,5.51-12.43,6.5-3.02,7.05,1.32,7.73,5.68,8.09,7.29,8.87-4.02,1.6-10.67,4.57-5.23-2.83-7.96,5.41-5.47,6-8.91-12.58-2.1-.92-7.23-9.9,4.33-4.01-1.76-4.47-12.29-7.78-3.52-4.19,15.17-1.83-1.45-8.14-5.62-7.44-.64-6.82,7.79-8.42-8.78-7.78-2.91-6.3,17.7-8.54-14.96-7.5.13-6.98,11.34-7.61-.81-7.92-11.52-7.25,10.43-7.64-5.3-7.41,12.34-7.62-13.73-7.38,1.27-7.35-2.71-7.63,13.15-7.52,2.37-6.87-17.95-7.34-.4-7.73,7.55-7.8,6.71-6.79-10.43-8.46,11.68-6.69-12.08-8.63,11.05-6.77-9.33-7.31,3.24-5.53-11.78-6.06,12.87-.88-1.23-4.5-.81-7.05-.73-5.81-7.75-6.1-5.23-6.97-.37-.59.41,4.99-.51-13.13-7.04,7.46.73-.8-4.73h8.28s10.15,10.64,10.15,10.64l6.84-7.84,7.3-6.06.55,1.49,8.48,8.01,6.14-11.83,7.34-.26,7.3-.22,7.61,3.78,7.58,4.28,7.18-.73,6.63-10.28,7.08-4.33,7.84,11.89,6.79-12.51,7.72,14.24,7.04-8.43,7.37,8.25,7.18-6.42,7.27-5.73,7.25,5.12,7.12,8.18,7.38-6.79,6.99,8.67,7.52-14.39,6.68,9.71,7.1-1.43,6.93,2,7.3-4.01,7.13-.69,7.04.57,6.39,7.7,6.88,1.53,7.98-10.69,6.69,1.91,4.95,2.94,3.32,1.88,6.44,8.5,7.99-1.35,9.2-6.98,7.82.78,6.43,1.89,6.94.91,7.25,1.14,5.97,5.56,8.12,1.62-.61,11.17-1.71,7.28.92,7.26,9.85,6.38,2.96,6.62,7.92-1.27-9.06,9.25-2.69,7.92,15.83,3.94-12.84,10.1,9.23,5.36-6.34,8.71,1.97,6.92,13.65,4.1-9.87,1.47-3.91.13-2.43-.74.25,2.76-2.04,1.19-1.37,5.97-6.62,2.06-8.4-12.91-4.86,17.01-6.76.04-6.71.49-6.85-.88-8.02-13.66-5.25,16.08-7.73-11.82-7.07,2.26-7.09,2.2-7.14,1.8-7.61-5.66-7.14,1.53-7.2.67-6.82,8.76-7.32-1.19-7.64-10.24-7.18.78-7.01,7.74-6.78-.47-6.74,1.83-6.68,8.13-6.93-15.74-6.71,11.3-6.78-5.99-7.33-.97-7.28-4.62-7.51,11.94-7.22-7.26-7.38,1.62-7.11-7.33-7.92,16.3-7.01-9.14-7.25-2.29-7.5,2.98-7.46,1.63-7.32-.87-6.68-10.18-7.19-1.98-8.18,10.76-7.8,4.82-6.88-6.07-6.37-10.86-8.46,11.12-6.37-9.92-8.53,10.48-6.15-11.02-8.78-.21-9.58,5.87-5.03.34-4.7-6.66-6.67,6.82-7.73.3-5.82-10.95-8.71,6.41-5.95-9.71-8.64,6.25-6.32-7.46-7.53-4.45-6.16,14.24-8.79-8.86-4.15,10.14-5.23,4.1-9.91-2.54-11.22-1.17-2.24,9.19-2.86,7.54-3.64,6.67-8.24,5.52-4.49,7.5-.4,8.42,8.01,9.69-8.37,6.42,2.49,7.41-2.19,6.46-2.11,6.54-7.14,6.16,9.49,7.6-6.22,7.24,10.85,5.17,3.01,5.72-4.97,8.95,4.78,5.34-2.2,9.96,10.08,1.15,4.97,4.66,5.66,3.74,8.41-1.33-.51,17.09,10.41-7.72,7.48-3.97,6.09,8.53,8.74-6.67,5.49,12.69,6.5,7.14,7.83-1.2,9.13-10.24,7.97-2.89,4.97,18.76,7.6.1,8.64-8.03,8.38-6.61,6.31,7.63,6.18,9.39,7.95-6.24,7.31-.62,6.63,6.09,7.03,2.38,8.11-9.58,6.33,10.49,8.2-12.04,6.26,12.51,7.51-3.83,7.1,1.79,6.78,7.37,8.05-14.4,6.82,7.19,7.6-8.43,7.1,1.65,6.74,11.98,7.44-6.78,7.04,6.04,7.27-2.17,7.35-8.32,7.13,3.11,7.17,1.5,7.18,5.69,7.2-7.35,7.27,12.13,7.06-15.72,7.32,9.32,7.03-8.75,7.56,15.09,6.74-16.45,7.68,14.24,7.26.5,6.96-6.21,7.58,7.18,7.1-2.89,6.44-13.55,7.64,7.01,7.31,1.23,6.38-11.48,8.18,12.69,6.84-4.94,7.03-2.27,7.97,7.94,6.2-4.74,7.01,3.57,6.34-3.12,5.68-8.93,9.55,1.57,8.6,4.56-.56,10.42,7.75,7.78-9.82,5.68,2.73,6.98,1.42,6.85-3.73,6.32,2.24,7.61-6.65,6.7,1.88,7.57,8.39,8.24-11.81,6.17-3.17,7.06-.62,7.32,14.87,8.91-18.05,5.53,8.6,8.26-1.85,7.19.84,7.47-10.21,6.33,8.44,8.25,4.89,7.88-5.4,6.83-.28,7.35,4.02,7.79-10.49,6.3,8.32,8.23-2.57,7.12,2.29,7.61-16.89,5.38,5.35,7.65,4.99,7.61-11.93,5.89,2,7.31,9.8,8.11-5.78,6.51,7.42,7.86-4.27,6.67,2.22,7.33.17,7.12-18.51,5.21,16.06,8.75-10.9,5.98-4.34,6.66,1.95,7.3,5.56,7.68-.84,7.02-2.57,6.84,6.98,7.82-15.39,5.52,13.08,8.45-16.29,5.42,7.3,7.86-1.29,6.73-3.03,6.55,2.37,7.1-3.12,6.54,5.27,7.4-8.25,6-5.04,6.35,9.52,7.72-11,5.97,11.66,7.63-11.11,5.88.59,6.72,10.93,8.24-7.98,5.66-1.24,7.42-3.76,6.54-7.83,3.65-2.4,6.7,1.58,12.72-5.69,6.71-8.23,2.6-7.53,3.56-9.69-5.53-7.6.17-6.17,7.82-9.18-9.72-6.13,9.82-7.71-1.1-7.05,5.88-7.88-4.28-7.78-7.92-7.31-1.49-7.39.87-7.44,2.02-7.49,2.62-7.46-.42-7.41-3.07-7.55,3.68-7.66,11.1-7.25-17.63-7.6,17.57-7.41-1.41-7-14.62-6.97,2.01-7.62,9.37-6.75-4.83-7.64,2.77-4.66-12.85-8.79,6.75-3.77-10.44-6.61-1.03-6.5-1.76-13.23,6.55,1.62-13.28-10.82-.35,3.57-11.45-9.33-3.28-6.55-5.73,3.71-9.09-3.99-6.7-1.79-7.28-.55-7.44,10-8.53-15.23-5.76,6.58-7.96-.24-7.25-5.9-6.65.66-7.34-1.25-7.14-3.9-6.87-3.28-6.93,15.67-8.9-9.81-6.25.2-7.29-8.9-6.35.31-7.3-1.75-7.09,5.13-7.83,1.26-7.43,3.32-7.64-10.74-6.18,7.32-8.06,1.41-7.44-8.26-6.44,3.52-7.67-.78-7.22-.8-7.22-9.79-6.28,6.79-8.01-.74-7.22-3.42-6.94,4.19-7.74-2.64-7.02,2.87-7.6-6.05-6.67-7.33-6.54,7.7-8.1-6.65-6.61,3.47-7.67-7.36-6.54,2.92-7.61,5.62-7.67,1.3-7.22-11.26-5.91,5.37-7.64-.1-7.07,2.44-7.34-6.33-6.43-6.76-6.38,11.02-8.23-11.66-5.87,5.71-7.68-6.22-6.44,3.08-7.4-2.07-6.87-.37-7.05,9.47-8.08-13.86-4.18,2.73-6.38-2.51-5.53-4.53-3.89-.78-8.91-9.11,6.84-4.55-6.79-5.77,2.47-6.21,1.18-9.1-.67-1.3,8.32-8.66,4.54,7.12,7.9-5.26,7.55,7.38,6.23-.55,7.06,4.19,6.56-12.18,8.27,13.82,5.56.28,6.97-7.08,7.74-1.67,7.17,7.47,6.23,7.36,6.24-13.89,8.46,14.23,5.76-3.1,7.56.13,7.22,3.73,6.85-5.2,7.78,1.24,7.11-.29,7.27-2.63,7.52,3.15,6.91,8.57,6.35-2.79,7.53-9.18,8.2,6.85,6.53,5.03,6.72-10.35,8.32,8.52,6.35-1.22,7.37,8.87,6.32-5.79,7.85-1.04,7.35-.4,7.28,7.34,6.48,2.2,7.02-4.34,7.71-5.62,8,3.01,7.09-2.44,7.66,14.13,5.93.6,7.35-5.46,7.98,1.3,7.27.26,7.38,11.37,6.22-10.09,8.46-5.58,7.99.64,7.34,10.95,6.27,3.93,7-10.66,8.52-1.71,7.59,6.1,6.77,10.9,6.28-6.67,8.1,1.99,7.2-1.74,7.28,4.32,6.66,6.99,6.36-3.52,7.46,3.63,6.45-9.83,9.5,2.58,7.2,15.42,1.66-7.09,11.14,6.23,4.81.95,8.35,12.08-.88,6.51,2.87,2.32,7.6.12,12.05,4.63,7.08,10.78-4.14,7.03,1.91,7.1,1.39,5.79,5.27,8.21-2.89,7.07.47,4.96,13.18,7.15,1.66,8.33-8.01,6.01,11.37,8.37-11.87,6.92,2.99,7.56-6.52,6.68,8.47,7.26-2.19,6.88,8.87,7.37-6.33,7.04,7,7.24-2.29,7.27,4.38,7.52-9.48,7.28,4.66,7.41-4.11,7.37-6.66,7.31,5.28,7.34.98,7.63,10.27,7.22-6.05,7.59,2.79,7.44-.65,7.33-1.8,6.24-10.06,8.55,7.97,7.77.93,6.93-3.68,5.87-6.76,7.9.73,8.89,2.31.24-17.76,13.36,10.59,5.68-5.44,5.01-6.06,8.89-.81,3.6-7.55.21-10.22,5.14-4.9,4.02-5.84.18-8.2,4.71-5.15,3.29-6.05,5.77-5.23,8.53-4.93,2.05-7.27,5.99-6.67-9.09-8.78,10-5.91-8.06-7.76-4.12-7.36,13.18-5.59-1.28-7.07-10.68-8.03,8.5-6.07,7.92-6.49-16.21-8.97,17.23-5.53-12.73-8.61,6.73-6.61-3.25-7.64-2.2-7.53,6.54-6.63.13-7.29.9-7.21,2.6-7.04-.12-7.32-3.77-7.69,8.77-6.4-2.65-7.58,5.98-6.69-11.93-8.53.82-7.22,9.53-6.33-1.22-7.43-5.19-7.84,1.35-7.17,12.08-6.05,3.26-6.96-2.4-7.53-3.73-7.67-1.88-7.48-.39-7.33,8.25-6.44-5.42-7.85-5.6-7.87,8.65-6.41.86-7.21,8.82-6.39-2.26-7.52-11.67-8.49,17.14-5.54-15.96-8.93.18-7.27,6.87-6.59,11.95-6.07-4.63-7.77-3.94-7.7-4.68-7.78,4.42-6.85-1-7.4,9.69-6.3-.65-7.36-8.17-8.13,1.7-7.12.59-7.23-3.18-7.62,10.18-6.25,6.18-6.65-6.35-7.95,1.11-7.19-1.54-7.46-.63-7.68,4-6.61,9.28.9,4.37-6.95,8.13,1.81,9.22,3.54,4.13-10.76,6.54-3.21,3.43-7.25,11.43,1.65,3.21-6.77,9.47-2.71,3.25-7.16,1.23-7.8,6.67-6.46-6.48-8.72-4.39-7.28,9.84-7.83-7.79-6.48-7.6-5.73ZM56.37,262.48l-4.06,11.39,4.06-11.39ZM57.16,274.36l5.91,13.02.1-9.41-6.01-3.61ZM67.34,278.39l-10.34-1.73,10.34,1.73ZM64.9,277.7l5.37,1.7-4.27,1.77,7.67,2.65-8.77-6.11ZM583.33,284.87l-7.84,6.25-11.42-6.51-8.33-4.05-4.88,15.99-7.65-2.88-6.28,6.95-7.67-3.2-8.4-9.12-7.24-.45-5.34,15.25-8.17-8.13-6.26,8.27-8.05-7.68-7.3-1.14-7.15.17-6.86,3.22-6.93,2.65-7.8-7.29-6.09,12.82-7.63-5.75-6.39,10.59-7.66-6.74-6.93,3.66-7.48-5.18-6.85,5.5-7.27-2-6.89,6.03-7.4-5.38-7.23-2.1-6.85,9.75-7.48-11.68-6.95,9.03-7.28-7.13-7.11,3.29-7.2-9.18-7.11,12.33-7.2,4.92-7.17-2.19-7.22,1.94-6.96-10.76-6.96-6.66-7.58,14.12-7.16.18-6.85-6.68-7.06-1.09-7.41,5.34-6.33-13.55-7.66,8.86-6.84-4.24-6.85-3.63-8.13,13.02-6.96-2.44-6.69-5.43-6.36-8.56-6.91-2.12-7.08-.36-7.38,2.57-8.5,12.74-5.75-12.9-6.64-4.44-8.46,11.3-6.54-5.32-6.82-2.81-7.15-.13-7.29.97-7.66,3.71-6.07-8.32-7.53,2.61-7.71,3.79-7.29.69-6.68-2.99-4.68-8.58-4.5-4.38-1.33-7.03-5.8-6.68-4.33-8.49-1.33-8.67,17.15-4.75.76-5.94-4.89-8.16,9.08-1.37-5.46-16.17,11.28,9.45,6.83,3.06,7.05-3.18,8.45-7.53,6.76,4.66,5.77,8.06,8.76-5.43,6.23,6.12,6.46,7.26,8.04-3.49,8.08-4.18,7.39.45,6.77,5.34,7.15,2.7,8.4-8.33,5.9,14.41,8.65-11.79,7.1,3.33,7.71-6.63,6.69,5.08,6.25,11.65,7.34-2.27,7,2.57,8.05-14.91,6.83,4.73,6.78,6.7,7.36-5.25,7,2.93,7.01,3.37,7.3-6.14,6.98,5.95,7.04,6.04,7.29-12.89,7.07,3.74,7.12,4.42,7.07-10.13,7.12,3.47,7.24,8.13,7.07-3.22,7.08-1.85,7.39,7.67,6.85-7.94,6.99-3.06,6.81-5.89,7.87,13.72,6.52-10.26,6.9-3.18,7.61,6.89,7.29,1.83,7.14-.3,7.63,5.05,6.19-10.42,6.69-4.52,7.19.54,7.27,1.08,6.31-7.05,8.28,8.98,6.72-3.6,7.17-2.11,7.62,1.05,8.33,5.44,5.15-14.95,8.56,6.62,6.89-3.62,8.04,2.93,7.03-3.63,8.27,5.69,6.34,1.08,6.14-2.73,12.54-6.07,8.02,6.42,1.79,9.2-4.33,9.59-7.35,8.24,1.08,6.88,7.03,7.65-2.52,7.16.69,5.02-.07,6.18Z"/>
  <path class="cls-3" d="M1135.06,534.99l.55,8.48-4.45,5.73-8.96,1.64-3.33,6.3-3.67,6.46-6.08,4.69-5.81,5.24-8.89-.33-6.89,2.89-4.78,8.43-7.61,2.41-8.14.51-7.95.63-7.14,4.53-8.03.05-7.44,1.32-7.62-3.22-7.51,3.94-7.58-.54-6.93-4.72-6.6-.46-6.34-1.83-4.7-5.73-5.51-2.87-3.8-.8-1.16-6.33,1.58-6.88-4.22-7.44,2.45-6.8,1.07-6.93.24-7.01,4.13-6.63-.88-7.12-1.1-7.14.53-6.98,4.39-6.61-5.76-7.59,2.37-6.81,2.6-6.69,5.16-5.07,6.88-.85,6.05-3.77,8.11,4.25,5.41-6.45,6.67-1.83,7.58,2.92,7.1,1.21,5.76-7.46,7.04.79,6.57-3.31,8.11,1.19,8.02,4.08,7.76.65,8.22-5.79,7.49,4.7,8.54-1.72,6.66,5.85,6.65,4.04,6.02,4.57,5.91,4.55,5.18,5.51-.04,7.37,6.76,5.19-2.24,7.22,4.03,7.31-4.24,6.62-.72,7.21-5.47,5.24ZM1001.38,328.33l4.42-7.39,7.92-3.13,9.8,2.6,5.95-3.97,6.14-4.11,6.87-1.51,6.79-2.3,7.24,3.9,6.68.06,6.9-5.9,6.97.77,8.1,3.25,7.56,3.75,8.94,1.05,5.97,5.96,5.81,5.94.7,8.69,6.09,5.93,1.08,7.69-3.69,7.49.19,7.33-1.35,6.46-5.64,4.63-3.07,5.11-3.71,4.69-3.55,5.92-5.85,3.41-3.12,7.86-7.03,1.75-6.96,2.75-6.79,3.15-8.11-.93-6.65,3.5-6.6,3.44-7.07,1.65-7.75-2.39-6.21,7.45-8.13-.73-8.1-1.19-7.75,3.9-6.66-.87-10.5-1.32,6.81-7.37-4.27-7.73.37-7.29,5.02-6.85,3.11-7.03-5.79-7.88,2.37-7.1-1.89-7.51,2.49-7.09,5.03-6.86,1.27-7.21-5.48-8.16,5.13-6.2ZM1185.96,472.03l-7.18-3.85-3.01-5.78.88-8.84-5.91-4.05-6.38-3.19-4.99-4.3-5.98-2.86-3.39-7.35-6.07-3.3-10.93.14,6.55-8.32,5.92-4.83,5.11-5.85.75-7.88,4.11-6.13,2.24-6.98,5.82-5.76-1.59-8.38,1.84-7.22,5.16-6.66.29-7.65.6-6.42,3.72-6.57-.48-6.82-1.53-6.76-3.89-6.23-1.68-6.97-7.33-4.32-1.76-6.87-3.52-6.01-4.68-5.15-2.49-7.49-6.68-3.69-6.98-2.89-6.28-3.65-4.99-6.62-9.15,3.24-6.3-3.72-6.23-3.44-7.26,2.22-6.59-1.81-6.81,1.72-6.9-6.02-6.57,5.34-6.69,1.03-7.41-3.3-7.27-1.18-5.47,7.7-7.04-.07-5.95,4.22-7.05.19-7.89-2.02-4.77,1.69-3.54-2.27,4.25-4.58-4.73-5.31-2.03-7.23-7.33-4.86-8.58-2.2-9.28,1.65-8.09,4.11-8.07,2.38.5,9-4.84,5.84,3.66,7.41-3.7,6.66.75,7.06-3,6.73,1.57,7.13-1.61,6.85,1.83,7.15-3.01,6.74-1.59,6.86,3.47,7.28-5.63,6.53,3.2,7.26-3.69,7.02.75,7.39-4.54,6.94,4.62,7.72,1.48,7.45-1.54,7.2.23,7.35-5.16,6.88-3.4,7.03,5.45,7.82-.47,7.29-3.38,7.04-.99,7.27,1.76,7.52-6.26,6.79,3.29,7.66-2.27,7.15-2,7.17,5.11,7.83-1.47,7.22-2.73,7.1-4.06,6.98-1.3,7.23-.53,7.29.76,7.09,5.11,7.5-5.84,6.48-2.22,6.81,4.52,7.45-2.59,6.78-1.5,6.88-.36,6.99.12,7.04,1.3,7.16-3.85,6.64.84,7.02,3.11,5.95,2.62,5.57,2.36,5.43,3.3,6.98,6.93,3.28,8.03.95,6.8-4.39,4.01-4.91,3.36-4.87,7.25.23,4.36,2.74,7.81-.1,5.75,5.28,8.59-4.63,5.7,6.85,6.89,2.55,7.8-.7,7.79-3.18,7.49,1.58,7.67,2.68,7.4-3.56,7.75,1.19,8.17,1.41,7.41-3.37,7.14-3.89,7.46-2.18,8.01-.43,7.68-1.79,5.69-6.37,9.28,2.44,4.63-8.09,7.22-2.45,4.98-6.4,7.35-2.32,8.41-.02,4.88-5.19,5.96-3.82.57-9.49,6.02-3.56,6.54-3.43,2.56-7.39,4.87-5.67,4.57-6.1.17-7.91,4.37-6.48,3.86-6.87-4.58-8,2.02-7.14,1.86-7.36-4.78-6.98.62-7.02,2.12-7.57-3.07-6.55-2.92-6.45-1.15-7.19Z"/>
  <path class="cls-3" d="M1618.99,707.54l-1.76,7.68,3.2,8.79-3.1,7.47-3.44,7.32-5.53,6.52,2.3,9.02-2.65,7.47-5.75,6.11-.96,6.62-2.97,5.71-6.43,3.31,1.97,9.95-9.52-1.09-3.91,5.61-7.09,3.99-7.62-5.31,3.57-9.11-4.17-5.36,3.73-5.96,1.76-5.72-5.29-7.56-.31-6.96v-7.04s8.99-3.87,8.99-3.87l5.6-5.9.27-8.07,3.61-6.67-2.74-10.04,4.39-6.73,11.49-2.2,1.74-8.13,1.59-8.52,4.39-5.91,3.47-6.82,9.99-.41,4.07-3.58,7.15,2.92-.21,7.48-3.13,6.44-2.6,6.23,3.62,6.98-7.75,5.31ZM1773.72,513.28l-7.01-5.91-9.38,2.29-6.01-.3-6.46,2.37-7.73,3.03.92,8.24-3.49,5.4-6.16,3.26-2.61,6.09-4.29,4.84-7.03,2.03.51,10.07-9.61-1.19-3.79,7.46-3.97,7.63-7.25,3.31-10.78-1.89-4.69,6.98,2.94-7.72.47-7.63-6.98-7.32-2.2-7.71-2.11-6.73,7.23-6.66,3.21-6.58-2.69-6.74.73-6.63-6.51-7.44,1.12-7,9.26-6.11-2.18-7.24-2.67-7.41.88-6.97-.66-7.25,7.99-5.76,1.97-6.78-6.98-8.94,2.18-6.9,4.62-6.17,3.98-6.25-2.18-7.37,1.18-5.83-2.43-5.92,1.31-8.44-9.88-1.62-6.27-2.9-7.71-5.85-8.03,3.81-6,3.91-9.24,1.91-4.76,6.97-2.48,7.05.13,7.54-3.72,6.11,4.3,9.13-4.96,5.66-2.98,6.06-1.91,6.48-7.31,4.23-.52,7.05-.31,7.21-2.6,6.22-7.93,3.89,5.47,10.44-5.45,5.06-5.85,4.73.93,8.53-5.01,5.17-1.73,8.4-11.95,1.48,1.21,10.72-4.7,6.58-10.07,1.71-7.34,2.38,1.21,11.82-7.24,2.53-3.92,7.26-7.72,1.34-8.71-3.09-6.2,1.14-4.66,10.37-7.43-5.01-7.28,4.69-5.35-9.28-2.83-7.34-1.81-7.67-2.88-7.71-1.91-8.12,4.88-8.05-7.58-8.2,4.53-7.83-5.57-8.73,5.43-6.5-1.04-7.3,4.6-6.46-2.02-7.52,2.77-6.7-2.23-7.36,4.93-5.89,2.94-6.26-4.32-7.99,8.96-4.73-3.7-8.06,6.27-5.37v-7.13s7.56-4.45,7.56-4.45l-5.2-9.55-2.84-6.3-.6-5.6-4.29-3.43-.47-8.9-4.93-6.66-8.46,7.57-5.88.39-7.02-2.64-6.61,2.6-2.3,7.14-10.77,2.18,2.78,8.96-4.77,5.94-4.26,6.22,5.99,9.52-3.21,6.49-4.92,6.07-6.66,5.37-2.58,6.52-1.36,6.83.6,7.22,7.13,8.38-8.84,5.37-3.42,6.45,6.65,7.97-3.71,6.46-1.98,6.74-.14,6.94.72,6.97,2.63,7-4.92,6.74,2.27,3.37.18,8.01-1.79,7.19-4.02,6.27-7.01,4.72-3.95,6.05-4.96,5.28-2.41,7.96-4.45,7.71-8.01,5.25-7.74-9.54-3.2-2.82-6.66-5.05,3.46-8.41-10.4-7.6,8.35-7.99,2.55-6.25-1.72-6.59-4.73-7.04,2.92-6.22,5.09-5.83-3.36-8.2,4.19-7.01,5.09-6.76-1.47-7.99-1.78-8.11,1.03-6.58,4.14-5.91,2.53-6.25-4.3-7.75,9.93-4.6-6.34-8.25,3.31-7.01-2.87-8.38,4.41-6.77,8.49-5.93-.13-8.1.69-7.45-10.98-3.82.05-6.24-.92-7.43-7.19-.8-5.17-3.64-6.26-2.75-5.85,4.24-7.11-.53-8,1.06,1.42,10.49-5.28,4.2-5.26,5.03,4.04,8.3-4.12,6.9-6.84,6.59.28,8.18-.37,6.89-6.36,5.56,3.25,7.71.15,7.04,1.83,7.47-10.33,4.49,4.35,8.29-.11,7.21-6.38,5.51-3.35,6.3-2.11,6.63-5.46,5.63,3.9,8.48.24,7.24-2.97,6.21-3.43,6.02,1.28,7.81-8.41,3.97-1.1,6.9-2.19,6.48-4.62,6.23-7.32,4.5,3.43,11.18-8.61,3.33-3.78,6.81-6.79,2.57-4.89,4.63-7.01-2.53-5.23-1.03-3.57.28-9.29-2.22-2.89-6.46.61-7.05,3.86-6.95,5.26-6.56-.36-6.45-4.3-6.79,1.02-7.16-2.83-7.56,3.76-6.85,5.56-6.5-5.64-8.14,3.54-6.75-4.6-8.44,1.48-7.4,8.66-6.06,3.92-6.89-7.53-9.12,2.54-7.18,5.6-6.58,2.45-7.21-2.82-8.32,7.5-6.12,3.82-6.87-9.05-9.53,11.21-4.95,1.96-7.62-7.44-7.29-1.01-6.76,2.78-10.39-11.17-2.07-6.76-6.84-8.52,7.25-10.57-5.71-6.24,5.13-6.65,4.65,3.27,10.15.42,6.66-12.46,4.71-1.55,6.89,3.35,8.01,2.96,7.46-7.61,5.14,6.22,8.11-8.51,5.02,6,8-6.68,5.46,1.22,7.03-8.15,5.24,7.22,8.13-1.88,6.42-1.32,6.94-.89,6.99-5.21,6.39-3.42,6.8-.07,7.74-.22,7.69-3.91,7.39,9.37,7.88-3.39,6.97,2.87,7.22-1.1,7.11-7.67,7.7,4.62,7.38,3.78,7.17v7.52s-4.25,8.11-4.25,8.11l8.46,5.26,1.89,6.67,2.41,6.51.59,7.02,1.37,7.35,4.79,5.1,9.08-.4,6.66,1.24,3.37,9.73,8.5-5.93,5.93,9.88,7.45-5.05,7.53,5.02,6.87-4.86,6.09-5.02,8.59.53,9.83,1.06,4.9-8.23,10.05-1-.15-12.5,9.98-2.04,3.43-5.93,4.97-4.69,1.75-7.09,4.91-6.67,4.34,6.89-.45,8.05,3.65,5.91h9.81s4.18,4.62,4.18,4.62l4.73,5.03,5.65,3.97,5.18,6.88,7.64-.15,7.18-4.99,6.4-1.01,6.42-.97,6.11-2.38,6.42-3.59,7.34-2.5,4.6-6.24,9.26-2.03,7.59-3.94,5.41-5.96-.2-9.35,3.31,4.05,7.16,1.34-.54,9.73,3.97,7.02,11.05-3.89,2.42,11.47,8.62-2.33,5.38,6.47,6.85.79,7.29-8.24,6.37,5.57,6.8,1.23h6.88s7.38-3.42,7.38-3.42l7.4-2.7,6.08-6,6.69-3.67,10.93,4.36,1.77-12.91,6.74-3.7,6.39-4.27,6.73-3.89,11.94,1.88-1-12.41,10.93.39,4.55-6.29,4.29-6.42,3.8-6.26-4.5,5.92.54,6.53.13,6.52,5.29,6.64-1.11,6.61-6.19,3.77-3.95,2.61-2.77,8.15-5.75,4.17-4.65,5.45-1.73,8.48-12.05-2.31.12,10.08-7.6,2.56-5.32,5.07-6.97,3.75,1.34,10.49-8.02,3.01-3.4,6.58-7.91,3.47,4.78,11.86-8.59,3.16-4.6,5.36-1.51,7.11-2.04,6.72-3.26,6.07-8.5,3.8-3.59,6.17,4.21,9.11.99,7.59-5.34,5.44-8.11,5.02,5.79,8.47-7,5.76,6.23,7.77-7.03,6.34.4,7.05-.25,6.92,6.47,5.95-2.29,7.27,6.64,4.79,3.33,5.38-2.3,8.73,7.97,2.55.92,8.65,8.37.38,3.76,7.1,5.45,5.41,9.45-5.95,5.11,8.22,7.95-3.92,6.81-.35,7.04,4.53,8.24,3.84,6.48-5.15,5.64-4.07,5.82-3.38,7.65-.99,6.32-3.44,4.41-5.6-.1-9.17,8.2-3.35,2.23-7.82,4.32-6.35,4.01-6.58,6.82-5.47-2.99-9.52,6.39-5.43-3.66-8.85,1.24-7.11,6.74-5.58.67-7.32,6.14-6.04-2.92-8.07,1.23-7.08.84-7.14-2.45-7.59,10.77-5.85-6-7.93-2.91-7.4,5.11-6.81-4.76-7.48,7.6-7.02,3.92-7.3-1.56-7.38-7.5-7.07-2.02-10.5,14.01,5.27,6.73-3.81,4.16-8.6,4.16-7.83,8.59-.13,9.36.39,3.57-8.09,5.36-5.34,7.97-2.35,6.31-4.5.47-9.8,9.6-1.07-1.18-10.8,10.52-.71,2.41-7.49,5.06-5.38,7.86-3.55-3.83-11.31,7.48-3.92-2.09-8.77.82-6.61,4.47-10.55-6.22-7.46Z"/>
  <path class="cls-3" d="M2341.1,486.62l-8.79-8.74,7.4-6.15-3.49-8.33,10.66-5.18-6.82-10.11,10.23-4.58-6-10.07,13.31-1.09,3.29-5.49,1.07-8.86,6.92-3.51,5.02-.04,8.31-4.37,5.68,5.89,4.18,6.57,2.2,7.04-10.35,7.65.57,6.54,5.37,7.98-6.49,5.52-2.59,5.74,2.05,8.31-4.75,4.97-5.24,4.31-7.11,2.27-1.58,9.07-6.29,4.49-8.17.46-6.25,4.63-8.12,1.85,3.14-9.07,2.66-7.73ZM2492.64,499.71l-8.59,8.51-7.1-5.29-2.19,7.08-10.66,2.06,6.86,10.1-10.27,4.68,5.45,10.95-13.65,2.04-3.13,5.82.52,8.21-5.05,4.78-4.99,4.68,1.13,9.79-4.86,5.29-4.16,6.03-4.8,5.51-12.24-3.74-4.83,4.87-1.85,9.22-8.21-.74-6.04,2.55-4.15,7.63-6.96.77-6.85.13-6.83-2.88-6.49,5.48-6.88-1.42-4.97-5.99-6.86-2.6-4.76-5.48-.37-8.74-10.95-4.47,5.7-9.91-4.96-5.92-5.02-6.27.93-7.07,6.66-3.98,3.79-2.38,7.01,3.82,7.19.41,5.36-8.52,5.6-3.91,5.01-4.38,9.37,4.32,8.37-.98,4.5-7.06,6.24-4.39.14-10.71,5.33-4.75,12.17.35,1.88-8.31.67-8.6,3.48-6.64,1.37-7.59,9.91-4.13,3.14-7.19-7.3-10.02,2.22-7.01,4.54-6.63,3.38-7.08-4.09-7.96,2.4-7.21-.99-6.95,5.3-7.58-7.64-5.93-1.68-6.48,3.26-8.77-4.64-5.85-4.06-6.02-.67-9.78-6.18-5.36-6.76-3.95-8.2-.22-6.8-3.47-8.18,6.94-7.25-3.18-7.59-.03-7.29,2.13-9.09-3.25-6.33,5.25-5.41,6.06-6.1,4.24-9.87.09,2.19,12.82-7.02,3.93-7.21,4.28.51,9.47-5.37,5.65-.34,8.24-12.06,2.34,5.06,9.53-1.79,6.64-8.93,4.49-5.78,5.82,8.71,9.41-4.24,6.3,2.79,7.75-4.18,6.39-8.22,5.91-1.95,7.01,9.36,8.28-7.07,6.46,4.72,7.54-6.48,6.73-1.69,7.12-.55,6.61-.04,4.29-1.59,6.91-8.09,3.73,4.51,10.16-7.31,3.94,2.6,9.68-7.91,2.85-1.96,6.69-7.19,2.66-1.66,7.28-5.89,3.42-2.88,7.33-7.93-.58-6.37-.51-7.56,5.87-1-10.68-7.94-3.91,4.35-7.16-2.42-7.23,6.67-7.1-8.36-7.68-2.95-7.65,2.19-7.25-.73-6.91,8.2-5.96,5.3-6.24-9.37-7.85.43-6.79,5.26-6.25,1.3-6.69-3.29-7.33,9.93-6.09-6.05-7.48,3.09-6.79,2.52-6.9-9.44-7.2,1.39-6.85,3.13-7.86,4.67-8.68-.6-8.39-2.49-8-5.04-6.95-11.8-2.74,4.02-10.6-2.18-7.94-11.46-.45-2.81-7.45-4.51-5.6-6.18-3.54-6.81-2.11-7.5.56-5.17-6.94-8,1.41-7.21,3.51-6.72,2.3-7.19.77-8.76-1.57-6.57,2.57-6.9,2.36-3.65,6.9-2.84,6.94-3.11,5.99-13.16-1.38-3.63,6.08.51,8.7-8.09,3.22,6.1,11.69-11.37,1.52-.07,2.37-.31-2.59-8.12-4.67-.61-7.36.85-8.6-7.99-3.22-1.37-7.5-1.46-8.22-7.45-2.73-7.61-1.47-5.65-3.45-4.28-6.07-5.74-4.07-8.53,3.92-4.39-11.06-8.13,7.85-6.5-2.17-5.8,5.43-6.33-2.29-8.28-5.98-5.68,4.29-8.33,2.55-1.08,13.55-8.02,2.33-9.08,2.25-2.76,8.7-6.61,5.14-6.51,5.15-.74,9.1-6.71,4.07,4.56-6.21-9.82-5.87,1.82-6.99,1.62-8.13-9.16-4.39-.74-5.62-1.2-8.41-8.73-.72-7.94.56-11.8-3.22-6.59,10.56-3.93,9.31,2.76,5.51-9.77,5.92,7.84,4.86,3.31,5.1-3.53,7.41-.43,6.32.84,6.05-3.06,7.15,7.66,5.87,3.34,6.53-.39,6.88-.89,7.87,4.69,7.68-6.94,7.89,1.9,7.75.68,7.78-1.72,7.65-5,7.45,9.47,8.21-6.1,7.33,1.14,7.79-3.66,7.41.9,7.79-5.59,6.64-1.76,6.99,1.82,7.4,7.38,8.14.63,7.36-2.52,6.94-5.69,6.48-6.92,6.26-.47,7.18,4.08,7.89.95,8.9,8.29,3.57,3.75,5.98,4.86,7.25,7.99-6.3,6.47,2.66,4.79-7.63,5.22-1.81,9.5,3.26,6.63-4.95-8.18-8.71,1.74-7.31,5.32-7.05,1.85-7.3-4.03-8.05,7.72-6.47,3.61-6.95-10.9-8.73,12-4.8,1.46-6.61-6.29-8.21,2.2-6.53,9.63-4.81-5.5-8.27,5.59-6.49-6.43-9.64,11.46-4.76,1.28-7.55,4.06-6.68-6.51-10.23.58-7.05,14.13-1.82,2.56-6.03-2.44-8.31-1.62-8.28,9.39-2.71-3.56-11.22,11.18-2.26-1.88-11.41,9.97-2.04,4.07-7.2,9.91,3.59,5.72-10.57,9.04,2.27,7.92,4.84,5.91,6.79-.52,9.24v8.05s2.66,7.02,2.66,7.02l1.95,7.34-2.56,8.09,11.79,6.64-2.88,8.14,3.68,7.81-1.13,7.96-8.83,6.66,4.51,6.9,3.2,6.94-1.42,6.77-6.69,6.39,7.21,7.34-.92,7.01-.97,7-3.82,6.7-4.19,6.58-.7,6.95,5.99,7.97,1.81,7.46-9.62,6.01,9.24,4.58-6.65,9.58,8.7.67,2.31,8.49,7.86-1.62,6.58-2.76,5.62,3.67,7.61,4.3,4.23-7.14,9.48-.03-5.35-10.97,7.87-4.33-.19-7.35,2.26-7-1.9-7.7.46-7.33,1.38-7.17,6.39-6.13,2.11-6.96-6.33-8.9,2.46-6.95,3.42-7.01,2.89-7.1,7.09-5.87.31-7.76-3.51-9.07,1.89-7.45,2.98-7.07,2.43-7.28,2.18-6.58,4.86-5.41,1.29-7.05,8.54-3.27,6.47-3.95,4.23-5.03-.95-8.8,4.4-6.78,2.93-9.93,11.13,2.77,7.42,1.77,11.37-5.42-4.44,12.48,7.21,4.65-4.49,7.5.88,6.44,10.03,6.58-6.28,6.41-2.25,6.26-1.72,6.19,1.1,6.56-.44,6.9,2.86,7.48-.37,6.97-10.9,4.97,10.07,9.25-1.7,7.01-1.27,7.1-2.12,6.99-11.01,6.49,10.34,8.59-9.16,7.26,1.07,7.82,1.35,6.55,1.38,6.44-3.62,7.01,1.68,6.44,1.6,7.41,7.64,5.6,1.33,7.14-3.88,9.84,4.02,6.62,8.61,3.12,4.36,5.74,6.06,3.98,8.88-.83,2.6,13.15,9.27-6.12,7.15,4.71,6.85.47,7.23,2.58,5.38-9.49,7.65,3.39,6.13-3.26,8.36,2.06.73-13.49,9.43,1.68,6.95-3.1,4.38-6.48,4.47-5.98,5.3-5.02,10.13-1.26-6.94-.59,8.08-.1,6.45,3.87.25,7.51-1.48,9.91,10.84-.74.78,9.37,10.13-2.6,2.22,9.67,6.71,2.38,6.49,2.91,8.15-4.52,5.98,5.22,7.15-4.88,6.73-.97,7.33,6.57,6.29-6.32,7.99,4.72,5.64-6.84,8.07,2.59,7.8.55,3.64-11.89,9.97,3.59,4.09-8.78,5.85-4.7,9.2.09,9.46-.22,3.46-7.6,4.15-6.43,4.84-5.64,7.75-3.45,5.37-4.87,3.04-6.49-2.22-9.53,7.74-3.52.78-7.44,3.57-5.93,3.57-6.2,6.97-4.72-3.6-9.36,7.06-4.76-3.79-9.24,1.67-6.96,7.74-4.67-1.24-6.81.54-9.09-9.32-1.21-5.09-8.13Z"/>
  <path class="cls-3" d="M2731.98,454.19l1.46,7.76-5.07,6.5,2.31,8.06.31,7.7-5.53,5.67-2.11,6.48-.74,6.88-3.03,6.19-3.22,6.09,2.03,7.93-7.55,4.17,2.51,8.61-5.8,4.65-1.42,7.06-5.69,5.09-6.03,4.45-5.5,4.57-3.99,6.46-5.57,3.83-5.96,3.93-6.93,2.09-6.57-6.22-8.54,1.02-4.78-7.02-2.06-7.83-.07-7.97-.43-7.78,1.99-7.56-3.54-7.87,1.89-7.54,4.78-6.99,1.37-6.46,2.15-6.27-2.12-7.39,2.71-6.18,4.3-5.56-1.71-9.28,5.99-6.24,1.32-8.39,7.8-4.84v-8.4s7.46-3.04,7.46-3.04l1.67-8.27,8.96-.03,6.61-3.75,6.81-4.49,8.04.16,7,1.76,8.28-.41,6.65,4.03,7.13,4.94-.37,7.92-6.25,5.45-.97,6.32ZM2894.24,486.62l-8.11.39-8.07-2.94-3.71,6.62-1.37,5.59-5.69,4.19-1.69,7.41-.68,7.65-3.22,6.96-3.56,6.78,1.69,8.31-7.74,4.39,2.21,8.96-5.97,4.96-1.56,7.38-5.14,4.61-5.37,4.2-4.68,4.52-2.71,6.4-4.61,4.76-4.77,5.5-6.19,4.14-8.21-4.11-6.58,5.17-7.35-1.58-5.9-4.81-2.8-6.73-2.2-6.42.44-6.93-4.76-6.25.77-6.9,3.77-7.11.58-7.05,1.41-6.97-2.94-7.56,1.93-6.96,3.42-6.2-3.54-7.49,4.23-6.01-1.1-7.09,5.74-5.6-2.96-7.58,5.67-6.63-2.55-8.65,7.3-6.16,1.93-7.51-.23-8.1,2.76-7.43,2.6-7.48-1.35-8.51,2.01-7.67.62-6.15-.92-5.62,1.73-8.1-4.72-4.58-6.9-1.25-4.46-4.81-8.95-2.36-8.82,2.99-7,2.22-4.88,5.88-4.38-6.04-7.39-2.1-5.98-3.85-5.44-4.9-6.96-2.06-6.72-2.34-6.51-3.63-7.56,3.23-6.51-4.14-6.62,2.2-6.2,2.91-6.49.73-7.66-1.71-5.48,4.45-6.92,1.55-6.64,3.68-3.71,7.4-4.73,5.65-4.29,5.92-7.78,2.91-5.94,4.84-3.01,7.02-4.13,5.95-.45,8.12-3.74,6.07-7.5,4.23-1.66,7.25-1.1,7.39-2.61,6.68-1.54,7.06-5.84,5.71-2.4,6.93,2.78,8.26-1.85,6.95-2.91,6.77-2.27,6.98,1.44,7.49-1.67,7.08-.04,7.54-3.07,7.49,3.36,7.49.48,7.46-2.16,7.85,1.94,7.38,1.67,7.4-.63,8.21,2.75,7.31,3.54,6.98,5.37,5.81,4.14,6.59,8.08,2.79,4.1,5.31,5.47,3.83,6.19,2.49,5.6,4.76,6.98.19,6.86-.65,6.68.13,8.31,2.44,6.72-6.73,7.72-1.33,7.77-1.96,5.47-6.21,6.97-3.48,4.71-5.58,8.7-.87,2.44-7.89,5.48-6.15,6.91-3.56-.95,6.88,7.21,5.41,1.54,7.12,5.27,5.16,3.45,7.35,2.83,8.49,6.04,5.98,8.88.09,4.83,6.22,7.69.3,5.51,4.62,6.53,1.82,6.79.6,7.2-1.3,6.94-1.95,7.78.49,4.89-6.78,7.24-1.62,3.73-6.92,6.87-2.36,4.36-5.4,6.27-3.42,3.4-6.23,5.09-4.67,2.69-6.59,5.63-4.36,4.69-5.44,1.01-7.76,7.16-4.03.73-7.73,5.46-5.21,2.02-6.94,5.77-5.33-1.34-8.22.82-7.22,2.93-6.44,1.32-6.94,5.31-5.95,3.54-6.21-3.55-7.87-2.25-6.03-2.9-7.41-5.41-6.6Z"/>
  <path class="cls-3" d="M3688.46,732.21l12.37,10.86-5.38,5.9-4.21,6.04-8.13,2.89-2.21,8.32-6.96,4.05-7.6,8.37-1.02-18.08-15.82,4.85-1.46-8.26-1-7.87-1.33-7.65,12.2-8.55-12.12-6.63,12.02-7.67-3.01-7.26,2.28-6.38-19.93-7.12,18.41-5.78-.51-6.46-1.35-6.54-9.66-8.23-2.89-7.84-.74-7.71,1.86-7.45,6.9-6.45,3.38-6.83,1.47-6.88,5.29,7.11,4.25,5.03,4.95,2.58,12.13-3.07-6.29,14.3,16.53-1.8,10.69,4.1-10.93,13.02.78,6.63,6.09,5.39-2.61,7.3-3.38,6.99,17.86,5.54-20.07,7.11,22.01,7.24-11.75,6.03,7.78,8.12-18.9,2.73ZM3526.62,732.21l12.36,10.86-5.38,5.9-4.21,6.04-8.13,2.89-2.21,8.32-6.95,4.05-7.59,8.37-1.02-18.08-15.81,4.85-1.47-8.26-1-7.87-1.33-7.65,12.2-8.55-12.12-6.63,12.02-7.67-3-7.26,2.27-6.38-19.94-7.11,18.41-5.78-.51-6.46-1.34-6.54-9.66-8.23-2.89-7.84-.74-7.71,1.86-7.46,6.91-6.44,3.39-6.83,1.48-6.88,5.29,7.11,4.24,5.03,4.94,2.58,12.13-3.07-6.29,14.3,16.53-1.81,10.69,4.1-10.93,13.02.78,6.63,6.09,5.39-2.61,7.3-3.38,6.99,17.86,5.54-20.07,7.11,22.01,7.24-11.75,6.03,7.78,8.12-18.9,2.73ZM3360.25,481.16l14.53,7.16-3.5,6.2-1.95,6.23-6.31,4.09.76,6.62-5.21-3.98-9.49-.77,11.57-15.3-17.2,2.33-1.76-7.21-1.82-6.97-2.33-6.72,11.06-9.49-12.51-4.88,11.92-7.03-2.63-6.23,3.12-4.06-14.77-15.04,18.17,6.61,3.54-3.69,1.27-.81,12.4,1.52,5.91,6.91,3,7.12.05,7.52-5.4,7.76-2.14,7.64-.59,7.45-9.7,7.02ZM3323.34,563.72l5.78,15.21-7.2,2.25-6.16,3.09-8.03-1.31-3.9,6.5-6.05,2.31-7.43,8.5-6.83-18.25-10.62,13.83-6.74-4.22-6.36-4.45-6.23-4.53,4.8-13.73-13.29,1.55,7.45-11.62-5.12-4.3.25-6.44-21.11-2.72,17.06-10-1.19-7.18-1.59-7.39-9.53-8.61-2.32-8.57-.07-7.23,2.69-6.67,7.83-4.98,4.63-5.57,3.15-5.94,8.05-3.51,5.93-4.75,3.01-6.16-4.83-11.86,15.24,2.89-6.51-15.17,1.01-11.51,15.42,7.25,6.79-2.13,4.91-6.74-5.49,5.17-5.33,6.28,16.47,8.78-20.7,5.3,21.98,7.47-11.13,6.69,9.2,6.13-6.27,7.19-6.03,7.85-1.32,7.54,10.65,4.5,3.47,5.94,8.07,3.95,5.78,4.19-17.31,16.7,19.68-3.4,4.31,4.97,2.71,6.17,1.04,7.96,4.96,4.71,1.22,10.04,18.21-3.88-7.29,12.3-14.88-3.22-4.9,2.84ZM3834.88,487.29l-13.69-9.38,4.17-6.81,2.53-7.01,6.87-6.11-1.87-8.53,2.4-7.33-3.61-9.29,19.28,2.09-10.1-14.11,6.79-5.85,7.62-4.8,7.86-2.01.63,13.64,11.29-4.77-9.03,9.75,3.91,4.43-1.82,6.03,19.6,8.35-19.1,3.94-.87,6.39-.44,6.16,6.27,10.39-.74,7.93-3.17,6.73-5.54,4.76-10.31,1.2-7.84,2.24-7.03,2.69-8.69-3.13-.54-.11,3.38-.14,1.79-7.33ZM4015.05,487.29l-13.69-9.38,4.17-6.81,2.53-7.01,6.88-6.11-1.87-8.53,2.41-7.33-3.61-9.28,19.28,2.08-10.11-14.1,6.79-5.85,7.62-4.8,7.86-2.01.64,13.64,11.29-4.77-9.03,9.75,3.91,4.43-1.82,6.03,19.6,8.35-19.1,3.94-.87,6.39-.45,6.16,6.27,10.39-.75,7.94-3.17,6.73-5.54,4.76-10.31,1.2-7.84,2.24-7.03,2.69-8.69-3.13-.54-.11,3.38-.15,1.79-7.32ZM4179.92,505.48l-15.56,6.18-4.75-5.2-6.41-2.07-7.98-4.19-4.3,7.34-2.61,5.79,4.31,9.7-19.6,1.18,11.58,13.34-4.97,6.56-4.16,5.71-3.53,6.03-14.41-1.7,5.31,12.31-13.61-2.5-2.16,6.89-6.15,3.19,8.35,19.47-16.96-9.32-4.81,4.68-4.3,4.98-.7,12.16-4.89,6.33-6.29,4.14-7.27,1.27-8.38-4.08-7.13-1.54-6.62-.8-4.35-6.94-3.58-5.15-4.31-2.75-12.13,1.73,8.47-12.97-16.46-1.54-9.58-6.45,13.35-9.45.3-6.63-5.21-6.14,2.09-3.35,3.49,5.73,6.15-17.46,8.96,19.23,2.48-22.89,9.07,8.99,2.81-10.48,8.67,3.4,10.16,2.17,8.12-2.26.34-11.99,4.37-6.13.4-9.4,1.51-7.55,23.01,7.21-11.48-16.47,2.8-6.66,4.55-5.81,6.97-5.13,2.53-7.09,8.98-5.34-12.73-10.91,5.42-6.29,14.91-5.38,1.6-7.86,3.36-7.99-14.56-7.48,2.59-7.38,7.29-8.93-19.43-2.32,7.96-10.38-11.64-1.72,9.35-15.41-17.66,6.2,3.88-15.95-14.59,11.15,1.86-21.84-8.04-2.1-8.88,7.49-7.8-2.97-8.31-1.51-4.97,14.16-6.74,1.84-5.43,4.66-5.1,4.29-16.92-12.42-5.33,6.66,3.2,13.99-11.7.24-5.39,6.04,4.23,12-5.99,5.28-6.09,5.6-9.34,3.72,6.91,10.35-2.04,6.6-7.76,4.9,2.06,7.89-1.27,6.86-8.59,5.43,14.14,10.05-15.76,4.32,5.78,8.15,6.52,7.96-3.72,6.54-15.97,6.17,6.32,8.34-7.91,7.32-2.53,7.79,13.25,8.79-.26,10.04.16,8.42-16.24-1.73-8.91,1.88.85,8.84-4.9,4.63,5.9,14.85-6.04,4.51-17.1-8.29-1.23,9.01-1.16,10.17-5.63,4.17-4.29,6.85-12.3-9.48-6.24,1.34-.83,19.28-7.49,1.11-8.39-4.54-7.11-4.15-9.83,7.01-6.33-7.02-7.87-4.07,3.47-12.74-14.68-1.53-3.27-8.55,8.96-10.99-3.68-6.14-.79-6.72,10.54-7.55-3.33,2.03-.98,3.08,7.1-5.84,7.48,1.97,3.83-15.84,7.57,3.48,6.62-1.25,5.37-4.09,12,5.1,3.84-8.38,2.56-8.93,5.14-5.3,13.53,2.12-10.33-18.18,8.41-2.83,9.06-3.19-5.38-11.47,6.25-5.02-2.95-8.96,20.02-1-12.3-11.54.82-7.26,14.4-4.7,8.5-6.71-18.69-9.81,5.57-6.96-7.9-6.7,4.93-7.06,11.83-9.37-.37-8.34-20.17.09,7.13-11.62-11.98-.2,3.44-12.65-4.63-7-6.39-4.71-8.41-.03-7.74.52-6.12-11.36-8.51,15.67-8.2-7.58-4.69,14.25-9.55-6.99-5.26,6.54-9.96-3.11-2.64,9.64-7.6,2.19.22,10.25-10.51.94-7.17,4.47,6.27,13.1-17.23-.95,6.91,12.1-11.45,2.61,1.28,8.11-13.73,2.79,13.14,11.63,4.37,8.26-4.3,5.87,1.09,7.35-14.95,4.19-9.6,5.64,17.3,10.02-.39,6.98-9.09,6.01-1.72,7.5,6.82,8.14-16.72,2.84,6.56,8.83-7.47-.17-8.59,1.58,4.15,18.95-8.08,2.65-10.16-.9-12.03-4.79-7.4,1.98-6.37,3.77-4.95,7.05-.44,19.33-13-12.09-8.43-2.3-3.29,17.29-8.91-4.14-7.95-1.37-6.4,2.48-1.73-7.07-5.38-7.78,10.33-6.31-3.98-7.65-5.56-7.8-1.52-7.42,3.03-6.99,9.42-6.39,1.97-7.09,3.64-6.94-5.48-7.79-5.35-7.78-2.63-7.52,21.31-5.27-.12-7.29-8.8-8.1,10.12-6.32-19.83-9.13,17.4-5.65,5.09-6.8-3.97-7.65-10.45-8.26,5.01-6.81,9.32-6.4-8.68-8.09,6.74-6.65,8.46-6.49-5.34-7.78-6.16-7.86-.03-7.28,6.43-6.68,3.03-7-11.29-8.33,18.43-5.55-15.66-8.75,4.1-6.9-8.76-8.1,6.52-6.67,15.1-5.87-2.94-7.56,3.34-6.5-19.1-8.14,3.33-6.07-.08-11.49-10.56,2.81-4.65-4.39-6.38-3.83-3.87,9.36-9.31-3.62-11.56.36,10.11,14.69-5.71,5.56-6.86,6.83,11.94,9.52-5.56,7.07-11.6,6.43,3.07,8.23,1.35,7.36-11.01,6,9.17,8.21,2.81,7.5,6.45,7.86-19.02,5.26,12.04,8.42,2.82,7.47-10.3,6.19-3.78,6.87-1.06,7.14-8.07,6.47,12.01,8.37,4.28,7.63-2.35,7.01-3.11,6.95,7.46,7.92-13.54,6,2.85,7.5.82,7.04-3.37,6.66-9.19,6.16,17.53,8.47-10.85,6.03,2.56,7.17-6.12,6.45,2.38,7.14-9.54,6.2-2.38,6.75,6.17-.57,2.61,17.64-4.68,7.31-8.32,2.53-11.57-2.59-12.46-4.95-5.92,4.88-1.92,12.09-7.34,2.74-4.06,9.98-9.63-2.46-10.48-6.24-2.92,15.57-8.8-2.73-5.35,13.63-8.29.94-5.56-11.7,6.04-5.44-17.97-8.96,2.88-7.01,9.18-6.42,2.59-7.03-8.46-8.07,13.02-6.06,5.27-6.78-21.61-9.3,20.74-5.33,1.06-7.18-13.56-8.55,2.13-7.07,15.94-5.78-12.59-8.45,7.74-6.55-15.2-8.7,18.52-5.54-1.01-7.37,4.09-6.89-16.53-8.83-2.62-7.52,23.66-5.06.83-7.2-9.55-8.17-8.55-8.08,13.62-6-15.2-8.7,15.6-5.82-14.56-8.64,11.87-6.17-4.52-7.7,15-5.87-16.86-8.86,2.1-7.08.88-7.2.19-7.26,9.32-6.4,5.9-6.73-.64-7.35-.27-7.07,7.37-10.86-21.72-.69-.48-9.13-8.77,2.62-3.76-2.87-6.8-15.7-4.83,9.94-2.84,8.48-5.69,2.63-14.24.79,12.32,11.33-1.78,7.52-1.67,7.57-6.7,6.96-7.23,6.99-.61,7.82,11.94,8.56,4.31,7.67-16.61,5.4,15.09,8.8-19.48,5.17,9.96,8.23-11.55,6.05,7.53,7.95,6.73,7.85-7.26,6.53-11.15,6.17,8.32,8.03-11.64,6.14,18.28,8.95-12.9,6.03,1.61,7.39-2.76,6.98,5.11,7.71.89,7.32-.64,6.9-9.84,6.09-1.72,6.81,14.29,8.19-2.04,6.78-3.55,6.65-2.37,6.75-10.16,6.13,2.95,7.19,10.59,7.76-2.78,7.55-9.36,3.13-8.11,3.27-6.89,2.5-7.55-3.11-12.61,1.61,9.91-11.02,7.61-5.1,2.39-6.08-10.02-8.05-1.36-7-9.93-7.47,14.38-6.31,5.74-7.15-19.12-6.95,18.88-7.13-10.64-6.03,9.85-7.56-1.68-7.69-19.15-4.06,9.41-9.55,1.32-8.21-.46-7.95-5.88-5.14-3.92-5.65-9.66-2-4.67-4.16,9.74-16.57-20.2,9.93-4.35-4.23-5.34-3.01-5.44-3.96-4.19-19.66-8.01,19.97-8.65-15.4-7.27,3.67-6.17,4.05-6.6.93-6.76-8.39-7.42,1.43-7.37.81-5.65,11.73-7-.64-10.63-11.33-7.14,3.25-3.18,12.01-6.98,2.54-5.27,5.57-.08,12.54-18.14-12.1,3.82,15.98-10.62-.61-6.12,4.78-9.58,2.21,7.95,15.49-11.84.96-1.95,7.71-11.85,2.37,16.09,16.17-13.53,2.16-5.18,6.22,1.62,8.65.39,7.95-2.39,7.09-13.97,4.95-3.2,7.61,13.75,9.29,6.5,7.61-7.46,7.54-15.33.87,9.83,13.91-13.97-.53,7.42,14.69-14.7-3.26-3.7,5.69-5.56,3.85,2.55,13.33-10.32-1.71-.41,12.53-5.69,5.76-12.67-7.8-2.82,12.29-11.25-7.75-4.69,11.74-9.7-6.65-7.68-4.46-7.28,18.08-6.58-14.21-10.69,8.25-9.15-2.66-.51-12.78,3.73-11.56-8.41-2.87-5.15-6.09-2.06-7.61,5.8-8.76,1.91-7.72-2.44-7.39-12.82-7,9.18-7.27-4.89-7.48,1.5-7.27,1.77-7.19,8.9-6.19-11.68-9.17,9.78-5.63-10.9-10.09.19-7.92,11.72-3.51-.1-7.09,11.15-2.51-5.74-9.77,2.88-6.08,2.94-6.23-1.2-10.32,18.83,9.99-1.71-15.28,17.61,7.8-8.44,9.33,10.26,8.11-15.92,7.12-8.88,7.12,2.07,8.14,14.45,7.47,6.35,3.67-18.32,15.88,6.77,7.08,14.77-3.33,8.81-7.32,6.15,8.39,12.88,6.47.31-12.03,2.66-6.26,9.07-2.02,4.29-.97-12.43-9.12,13.6-5.65-15.6-8.88,16.3-5.35-4.85-7.69,2.47-6.89,9.75-6.09-18.38-9.46,9.59-5.9-12.04-3.57-.33-4.46,7.02-14.82-10.78,3.92-2.86-8.41-5.65-2.65-12.16,3.59-2.48-6.44-4.8-4.27-4.73-8.91-7.88,8.67-7.26-15.74-4.33,21.04-9.07-10.45-2.59,12.72-14.36-15.36,3.91,21.9-15.9-12.27-7.35,4.54-.52,11.15-12.72-.35-2.38,8.61,10.21,15.71-11.98,1.32-5.4,5.53,9.94,12.54-18.72-.03,2.71,8.96-.26,7.6-12.74,3.4,3.39,8.14-7,5.51,1.67,7.51,9.37,8.64-1.66,6.52.05,6.76-8.77,5.91,8.46,7.48-12.3,6.18,4.29,7.03,2.77,6.82-3.76,6.97,4.32,6.59-6.98,8.21,4.39,7.09,13,5.23-12.67,10.15-1.2,8.25,2.36,7.41,21.82.52-17.77,16.03,14.61,1.64,2.9,7.32,6.33,4.88-4.1,13.93,13.71-3.81,9.55-2.28,2.81,8.34,6.29,1.85,7.8-4.13,3.61,13.84,8.11-10.85,6.09,2.77,6.17-4.02,8.37,20.57,6.02-8.9,4.95-8.62,10.04,12.63,5.68-5.38,1.75-15.16,8.88,3.66,2.19-12.5,8.14,1.37,4.45-6.48,5.5-4.19,18.12,16.5-5.03-22.71,13.68,6.83,9.14-.82,4.01-7.63-.03-10.8,5.13-4.54,8.37-3.54,13.56,4.61-12.73,16.8,19.27-3.56-11.26,18.62,13.22-1.17,5.18,5.78,4.35,7.24,8.76.95,5.17,6.38,9.79-4.37,4.18,11.63,6.67,7.28,9.55-12,6.71,14.22,7.88-15.73,7.56,13.52,7.16-2.3,4.49-16.31,8.4,7.46,6.47-2.59,7.05-.81,9.12,3.44,5.37-5.68-.39-15.01,4.14-5.84,6.56-2.15,4.66-4.78,12.12,2.79,6.39-4.05-1.92-10.93,15.93,2.8-5.49-12.55,6.22-5.14,7.55-7.05,7.68,5.73,8.88,9.77,8.21.79,7.56-2.78,6.93-4.62,3.31-5.83-3.23,1.29-4.39,7.77,4.43,8.39,14.16,8.76-23.05,7.31,22.67,7.93-2.2,7.28-19.37,6.19,2.4,7.39,12.21,8.15-5.93,7.16,4.49,7.82-15.66,6.85,11.01,8.05-11.62,7.27,1.92,7.7,1.88,7.01,16.76,6.75-14.38,7.13,10.42,6.47-11.91,7.52,9.24,6.28,5.7,6.33-7.22,8.23,4.13,6.94,1.97,7.15,1.03,7.33-11.61,11.25,20.36,1.24-6.04,10.71,2.96,7.54,9.79,3.25,2.95,7.24,5.51,5.33,7.96,1.65,7.2.78-1.9,22.73,11.55-8.85,7.44,2.59,7.29-10.04,5.8,1.33,5.44-2,7.7,5.96,7.14-.08,8.88,1-2.37-14.5,11.94,3.5,7-3.28-3.37-11.51,8.4-2.43,3.42-6.02,2.96-6.14-8.3-10.64,11.5-2.64,2.04-6.4-1.64-7.33,7.78-5.12-1.18-7.13,5.78-6.6-6.04-8.1-7.99-7.76,11.39-6.58-7.61-7.29,5.38-7.25-9.01-6.63,4.21-7.16,7.42-7.93,1.53-7.5-14.85-4.25,6.24-8.49-1.04-7,1.83-8.05-9.36-4.28-9.92-3.12,10.57-13.17-15.86,1.32,3-10.36-11.97-8.21,13.83-4.12,5.36-4.35,6.2-2.73,12.5,8.22-3.14-18.37,8.36.89,5.51-3.79,11.77-5.21-6.5,12.06,12.59,8.1-8.51,7.03,1.61,7.41-2.13,7.21-8.09,6.81,5.27,7.61-8.59,6.67,9.58,8.27-8.25,7.13,8.34,8-1.96,7.49,4.31,7.69-17.05,7.22,17.06,7.09-.54,6.78-10.05,7.09-2.87,7.09,9.18,6.45,9.13,6.18-18.48,8.46,18.36,5.57-3.92,7.95.57,7.42,5.45,6.26-5.5,9.21,2.99,6.98,1.73,7.92-.33,9.33,6.95,5.51,12.81.27,1.41,8.66-2.42,15.26,11.72-1.83,9.4-1.82,3.72,16.29,10.18-8.49,6.81,3.2,6.56-10.68,7.54,7.66,7.57.46,7.5-1.44,1.75-10.96,4.07-5.38,9.41.53,11.11.41,2.41-7.71,7.69-3.88-11.65-14.81,3.04-5.64,10.1-2.89,1.72-6.65,2.69-6.31-11.69-9.93,15.3-3.27,9.45-5.36,1.29-7.57-12.38-8.94-3.55-7.47,15.28-6.61,3.35-7.6-7.13-7.45-13.62-6.53,9.09-7.74-2.44-6.82,2.1-7.5-5.95-6.05-9.51-4.81,3.63-7.99-5.35-5.45,11.76-11.92-3.51-6.77-19.21,1.84,9.01-13.41-7.32-3.76.42-5.13-.9-10.8,4.34-5.67,8.4,1.83,12.08,7.55,8.27.37-.25-13.32,4.77-5,5.15-5.54,8.05-.82,7.28,6.57,2.82,7.09-13.27,11.57,2.02,8.37,14,2.82-8.84,12.77,17.56-3.02,1.42,7,10.82-1.77-2.34,11.97,7.19,1.15.45,13.21,10-4.79,3.85,10.73,7.9-1.29,6.44,6.64,8.15-11.86,7.05,5.99,6.82-5.87,5.61-9.48,7.8,5.58,7.07-.25,10.73,11.05,4.66-9.48,8.97.97,7.36-3.46,6.55-5,.49-14.32,13.05,5.4,7.95-2.58,3.96-7.34.65-10.01,7.92-2.94,10.16-1.8,2.38-14.67-14.98,16.14,5.07,5.42,6.03,4.84-1.18,9.43,8.02,3.15,11.44-1.41,4.29,4.76,5.48,3.29,8.21-1.9,4.64,4.28,5.68,2.39,5.15,5.82,5.5,9.53,7.21.82,7.66,6.1,6.69-13.63,8.78,11.19,5.23-12.59,5.29-7.71,11.35,13.73,6.26-4.81,1.8-16.67,11.08,6.22,11.52,4.63-4.64-23.03,18.56,13.42-4.96-18.51,10.6,1.05,1.48-8.86,1.83-7.83,10.41-.87,3.37-6.02,3.97-5.58,5.69-4.59,2.46-6.56-2-8.79,12.47-1.48-.97-8.37,9.2-3.71-12.36-13.14,2.82-6.42,13.32-2.21.24-7.58-4.84-8.95.71-2.44,10.82-14.41Z"/>
</svg>