<?xml version="1.0" encoding="UTF-8"?>
<svg id="Layer_1" data-name="Layer 1" xmlns="http://www.w3.org/2000/svg" viewBox="0 0 150.67 192.78">
  <defs>
    <style>
      .cls-1 {
        fill: #231f20;
      }

      .cls-2 {
        fill: #db667c;
      }
    </style>
  </defs>
  <path id="Cursor_Icon" data-name="Cursor Icon" class="cls-2" d="M143.7,115.06L49.5,57.06c-3.6-2.2-8.1.8-7.5,5l16.6,109.4c.5,3.6,4.6,5.4,7.6,3.4l22-14.5c2.3-1.5,5.3-.9,6.9,1.4l19.1,28.8c1.5,2.3,4.6,2.9,6.9,1.4l16.8-11.1c2.3-1.5,2.9-4.6,1.4-6.9l-19.1-28.8c-1.5-2.3-.9-5.3,1.4-6.9l22.3-14.8c3-2,2.9-6.4-.1-8.3h0l-.1-.1Z"/>
  <path id="Scribble" class="cls-1" d="M141.2,48.86c-7.8,12.8-26.4,16.2-37.1,4.7-12.9-13.9,12-23.5,22-26.2s4.1-.9,6.1-1.5,1.4-.8,1.2.7c-.3,2.9-3.1,6.4-5.1,8.4-3.5,3.5-11.9,8.8-17.2,6.4s-1.8-13.1-.8-16.4c1.9-6.4,5.9-11.8,11.5-15.5,5.4-3.5.4-12.2-5-8.6-13.5,8.8-21.7,27.3-16,43.1s12.6,8.6,20,6.7c7.4-1.9,15.1-7.4,19.3-14.5s7-17.2-2-20.2-9.7.4-13.7,1.5c-5,1.3-9.9,3.1-14.7,5.2-7.4,3.3-14.9,8.6-17.9,16.4-3.1,8,0,16.3,5.8,22.1,15.6,15.4,41.2,11,52.3-7.2,3.4-5.5-5.3-10.5-8.6-5h-.1v-.1Z"/>
  <g id="Highlights">
    <path id="Highlight_4" data-name="Highlight 4" class="cls-1" d="M57.9,45.36h8c2.6,0,5.1-2.3,5-5s-2.2-5-5-5h-8c-2.6,0-5.1,2.3-5,5s2.2,5,5,5h0Z"/>
    <path id="Highlight_3" data-name="Highlight 3" class="cls-1" d="M16.5,41.36l-11.5-1.1c-2.7-.3-5,2.5-5,5s2.3,4.7,5,5l11.5,1.1c2.7.3,5-2.5,5-5s-2.3-4.7-5-5h0Z"/>
    <path id="Highlight_2" data-name="Highlight 2" class="cls-1" d="M13.3,70.06c.3-.4.2-.2,0,0s-.5.6-.8.8c-.5.5-1,1-1.5,1.4s-.5.4-.7.6c.4-.3.2-.2,0,0-.6.4-1.3.8-1.9,1.2-2.3,1.3-3.2,4.6-1.8,6.8s4.4,3.2,6.8,1.8c3.4-2,6.2-4.6,8.5-7.7s.4-5.7-1.8-6.8-5.2-.5-6.8,1.8h0v.1Z"/>
    <path id="Highlight_1" data-name="Highlight 1" class="cls-1" d="M37.6,28.96v-11.5c0-6.4-10-6.4-10,0v11.5c0,6.4,10,6.4,10,0h0Z"/>
  </g>
</svg>