<svg viewBox="170 0 300 300" xmlns="http://www.w3.org/2000/svg" xml:space="preserve" enable-background="new 0 0 669 218" version="1.1">

 <g>
  <title>Layer 1</title>
  <path id="svg_2" d="m67,171.0018c-1.34611,-3.14577 -2.79607,-5.84444 -3.92308,-8.67184c-0.97892,-2.45591 -2.16093,-2.76253 -4.5003,-1.57348c-3.9974,2.03185 -8.17932,3.70139 -12.28783,5.51381c-7.90366,3.48661 -15.28166,-1.18281 -15.28461,-9.70181c-0.01063,-30.66442 0.04448,-61.32899 -0.05649,-91.99308c-0.0152,-4.61467 1.4193,-8.06475 5.80548,-9.75112c4.21505,-1.6206 8.03543,-1.32113 11.68427,2.04398c14.15689,13.05606 28.45827,25.95658 42.78553,38.82633c8.05347,7.23418 16.24893,14.31075 24.4062,21.4288c6.77898,5.91537 6.44112,16.872 -3.5894,20.00347c-4.85513,1.51573 -9.36075,4.151 -14.06584,6.2982c3.07112,7.39232 6.31361,14.53536 9.01374,21.87784c2.8467,7.74103 0.60835,11.87457 -6.97636,14.75438c-3.88961,1.47685 -7.58146,3.47131 -11.4617,4.97666c-10.60502,4.11428 -15.51154,1.85728 -19.52458,-8.75768c-0.62133,-1.64348 -1.32373,-3.2563 -2.02503,-5.27446m47.98169,-47.19302c-3.23212,-3.00841 -6.44726,-6.03532 -9.69924,-9.02212c-16.2508,-14.92563 -32.50825,-29.84401 -48.77063,-44.75703c-3.63554,-3.33387 -7.24662,-6.69755 -10.96619,-9.93584c-3.93573,-3.42648 -7.88091,-2.23915 -9.53831,2.89827c-0.58431,1.81119 -0.95991,3.77744 -0.96545,5.67425c-0.0652,22.30772 -0.04187,44.61569 -0.04187,66.92359c0,6.32613 -0.06532,12.6531 0.0169,18.97815c0.09845,7.57396 3.70792,10.09635 10.56418,7.15291c6.12461,-2.62933 12.08154,-5.64924 18.54853,-8.70271c3.65489,8.28421 7.39923,16.4144 10.82734,24.67583c2.0396,4.91522 4.10321,6.25468 9.26052,4.2574c5.3638,-2.07726 10.64252,-4.43091 15.77736,-7.02251c3.3754,-1.70357 4.8508,-4.39384 2.97243,-8.41189c-3.8475,-8.23026 -7.41849,-16.58979 -11.18867,-25.08843c1.0831,-0.60417 1.88368,-1.11919 2.73886,-1.51671c5.66018,-2.63118 11.36368,-5.17148 16.98762,-7.87739c3.08896,-1.48624 5.52256,-3.48789 3.47662,-8.22577z" fill="#FFFFFF"/>
  <path id="svg_3" d="m468.18848,108.48908c5.70669,-12.48472 15.39279,-18.82152 28.36801,-20.47294c15.00909,-1.91029 32.0892,13.65644 32.55752,28.91031c0.33087,10.77669 -2.36596,20.19547 -10.73669,27.00666c-12.30789,10.01483 -27.76898,11.63456 -41.28125,-0.28957c-7.5437,-6.65712 -11.24707,-14.97076 -11.00244,-24.90871c0.08136,-3.30598 1.25512,-6.58508 2.09485,-10.24575m1.81152,8.28184c-0.76611,10.33641 2.14871,18.94254 10.70377,25.57152c8.5755,6.64485 17.88723,7.41229 27.44357,3.83668c9.9436,-3.72047 16.38342,-11.55105 17.66064,-21.97429c2.04212,-16.66579 -7.87017,-29.15342 -22.17773,-31.89673c-16.43967,-3.15211 -30.78436,6.26363 -33.63025,24.46282z" fill="#FFFFFF"/>
  <path id="svg_4" d="m451.27179,139.28912c-4.47629,7.10454 -11.30435,9.85631 -18.58817,11.68067c-17.16204,4.2985 -34.77755,-8.36048 -37.44909,-25.5811c-2.61273,-16.84148 7.01858,-33.12168 26.15011,-36.45655c10.37574,-1.80862 19.37531,1.25133 26.71015,7.91728c10.6307,9.66121 13.35348,25.57835 5.91885,38.58336c-0.71838,1.25658 -1.66653,2.38179 -2.74185,3.85634m-37.16663,-44.91864c-11.22592,5.67668 -18.75833,19.58799 -15.09524,32.10409c4.84772,16.56377 17.18274,23.87129 32.88501,21.27458c13.03882,-2.15627 24.91339,-15.11461 22.29355,-32.12027c-2.88626,-18.73523 -22.25483,-28.5288 -40.08332,-21.2584z" fill="#FFFFFF"/>
  <path id="svg_5" d="m216,128.99988c-0.28008,8.01297 0.61488,15.63003 -0.56187,23.06366c-0.84166,0.02012 -1.68334,0.04024 -2.525,0.06036c-0.30438,-2.03508 -0.99196,-4.09695 -0.85188,-6.10097c1.0247,-14.66133 -2.72125,-28.03642 -11.16031,-39.92958c-3.03007,-4.27028 -7.17665,-7.76189 -10.93382,-11.48771c-0.55149,-0.54689 -1.77246,-0.41865 -2.96712,-0.66007c0,17.8053 0.00005,35.28435 -0.00014,52.76338c-0.00001,1.16611 0.1957,2.38094 -0.07538,3.48047c-0.16917,0.68628 -1.04412,1.19856 -1.60234,1.78893c-0.43773,-0.54264 -0.9259,-1.05417 -1.28884,-1.64292c-0.1496,-0.24264 -0.03246,-0.65126 -0.03246,-0.98439c-0.0004,-20.31476 -0.00037,-40.6295 -0.00037,-62.03539c13.09976,6.68153 20.84125,17.071 27.02732,30.21127c0.41877,-2.1809 0.91592,-3.61911 0.93446,-5.06346c0.08553,-6.66236 -0.03169,-13.32769 0.08942,-19.98894c0.02826,-1.55385 0.70362,-3.09593 1.26533,-5.39772c1.35394,1.20224 2.23059,1.61428 2.23711,2.03964c0.20105,13.12704 0.31689,26.25536 0.44589,39.88344z" fill="#FFFFFF"/>
  <path id="svg_6" d="m543.58472,88.2448c13.15258,2.02937 21.97949,8.85357 26.45031,21.01251c3.77649,10.27044 2.32599,19.96419 -3.7796,28.96245c-5.73657,8.45431 -14.2796,12.1493 -23.95923,13.76042c-3.59149,0.59776 -5.43951,-0.40654 -5.38714,-4.71362c0.21686,-17.81169 0.29651,-35.63139 -0.0376,-53.43945c-0.09686,-5.16234 1.78131,-6.5233 6.71326,-5.58231m13.66266,54.73207c10.9729,-8.65178 14.15716,-22.51219 9.00488,-34.23506c-4.41766,-10.05127 -15.61676,-17.3899 -24.90692,-16.34756c0,18.51268 0,37.02537 0,57.29299c5.6701,-2.48561 10.41028,-4.56354 15.90204,-6.71037z" fill="#FFFFFF"/>
  <path id="svg_7" d="m378.78619,140.71095c-5.57156,6.771 -12.93219,9.50469 -20.78869,11.24372c-4.61356,1.02121 -5.98734,-0.16643 -5.99158,-4.99176c-0.01511,-17.33053 -0.00604,-34.66108 -0.00586,-51.99162c0.00009,-6.84547 -0.0192,-6.62148 6.78732,-6.0269c9.7938,0.85553 16.73377,5.74429 22.44931,13.57091c8.44187,11.56003 6.87293,28.06463 -2.4505,38.19565m-2.77014,-1.23811c8.06147,-10.58801 9.90106,-21.7301 3.24436,-33.77664c-4.73121,-8.56202 -15.08777,-14.56014 -23.05875,-13.10928c0,18.39266 0,36.78532 0,55.16528c6.20599,0.34772 6.85348,0.08448 19.81439,-8.27936z" fill="#FFFFFF"/>
  <path id="svg_8" d="m301.01959,92.16014c1.15106,-1.67005 2.28488,-2.91267 3.4187,-4.15529c0.84613,1.36838 2.10465,2.63383 2.4758,4.12075c4.6702,18.71053 9.24027,37.44636 13.71518,56.20452c0.2598,1.08899 -0.51809,2.42554 -0.81308,3.64687c-0.77249,-0.98714 -1.83902,-1.86524 -2.25418,-2.98486c-0.78195,-2.10874 -1.18835,-4.35671 -1.80954,-6.77527c-7.6669,0 -15.44174,0 -23.52051,0c-0.48413,2.08357 -0.78927,4.31341 -1.55859,6.3696c-0.47397,1.26683 -1.65631,2.26861 -2.52063,3.38942c-0.36084,-1.41805 -1.26282,-2.95179 -0.98868,-4.23407c1.17453,-5.49378 2.71234,-10.90923 4.08692,-16.36101c3.25976,-12.92872 6.50204,-25.86186 9.76861,-39.22066m-1.01721,18.42375c-2.2037,9.07463 -4.40738,18.14925 -6.62802,27.29361c7.35361,0 14.30212,0 21.38632,0c-3.26718,-12.83526 -6.49582,-25.51913 -9.72449,-38.20302c-0.64401,0.06351 -1.28802,0.12702 -1.93203,0.19052c-1.02274,3.2893 -2.04547,6.5786 -3.10178,10.71889z" fill="#FFFFFF"/>
  <path id="svg_9" d="m237.31694,98.18539c-1.60539,1.49603 -2.94188,2.75033 -4.21397,3.94418c2.78456,3.26514 5.28874,6.46801 8.07884,9.39868c2.82532,2.96769 4.72124,6.1447 4.49446,10.59925c-4.02837,-4.71138 -7.68388,-9.1671 -11.54465,-13.43724c-2.48233,-2.74551 -4.49364,-2.74476 -5.17991,1.50297c-0.58857,3.64287 -1.76806,7.25436 -1.86153,10.90087c-0.25981,10.13579 -0.09018,20.28259 -0.09018,30.42504c-0.50227,0.2039 -1.00453,0.40779 -1.50681,0.61167c-0.49772,-1.22229 -1.41566,-2.44046 -1.42768,-3.66751c-0.11101,-11.33207 -0.06551,-22.66569 -0.06551,-33.99885c0,-8.64563 0,-17.29125 0,-25.9384c2.99989,0.04656 2.99991,0.04656 3,5.95363c0.00005,2.76513 0,5.53025 0,9.2163c3.94338,-3.63446 6.77144,-7.34555 10.50877,-9.41265c4.937,-2.73064 10.56218,-4.24566 15.96631,-6.06053c0.56377,-0.18933 1.63265,1.12537 2.46717,1.74224c-0.96268,0.67796 -1.92334,1.93579 -2.88837,1.93915c-5.98137,0.02083 -10.92537,2.46167 -15.73694,6.2812z" fill="#FFFFFF"/>
  <path id="svg_10" d="m602,93.11219c0,-1.92933 0,-3.37045 0,-4.9583c4.42358,0 8.36896,0 12.7074,0c0.0805,1.13391 0.16351,2.30381 0.26306,3.70658c-3.33234,0 -6.2934,0 -9.61279,0c0,5.37933 0,10.56628 0,15.98876c2.97955,0 5.92907,0 9.26196,0c0.13147,1.36316 0.24481,2.53858 0.39722,4.11845c-3.41614,0 -6.50135,0 -9.79779,0c0,12.09542 0,23.81902 0,35.93152c3.14239,0 6.22479,0 9.5357,0c0,1.4552 0,2.52324 0,3.85553c-4.0307,0 -8.11566,0 -12.75476,0c0,-19.37619 0,-38.76526 0,-58.64254z" fill="#FFFFFF"/>
  <path id="svg_11" d="m176,99.05524c0,16.26639 0.05592,32.04336 -0.08116,47.81865c-0.01471,1.69284 -1.15294,3.3759 -1.76997,5.0635c-0.7163,-1.58836 -2.04258,-3.17175 -2.05553,-4.76583c-0.14707,-18.10024 -0.09351,-36.20212 -0.09278,-54.30355c0.00005,-0.8303 -0.25204,-1.78808 0.07674,-2.45957c0.43978,-0.89816 1.33283,-1.57436 2.03122,-2.34586c0.62744,0.84384 1.71294,1.64512 1.79605,2.53956c0.24483,2.63459 0.09238,5.30611 0.09543,8.4531z" fill="#FFFFFF"/>
  <path id="svg_12" d="m593.96265,150.94437c-4.44922,0.74818 -8.86646,1.02671 -13.52973,1.32077c-0.18139,-1.10703 -0.41491,-1.87023 -0.41571,-2.63367c-0.02057,-19.28667 -0.04809,-38.57351 0.05524,-57.85964c0.00671,-1.25266 1.05322,-2.49977 1.61603,-3.74947c0.43713,1.20935 1.25,2.41706 1.25525,3.62828c0.08075,18.59704 0.05627,37.19454 0.05627,56.35018c2.97723,0 5.76373,-0.2028 8.48987,0.11362c0.91394,0.10607 1.67425,1.53564 2.47278,2.82993z" fill="#FFFFFF"/>
  <path id="svg_13" d="m154,127.99969c0,6.79752 0,13.09516 0,19.78881c3.24059,0 6.31078,0 9.74147,0c0.08287,1.54831 0.14552,2.71895 0.21735,4.06093c-4.3741,0 -8.32944,0 -12.66671,0c-0.09359,-1.18497 -0.27806,-2.44124 -0.27931,-3.69773c-0.01855,-18.61297 -0.0489,-37.22616 0.05818,-55.83854c0.00826,-1.43421 1.02474,-2.86263 1.57257,-4.29374c0.45215,1.36082 1.28476,2.7183 1.29676,4.083c0.1037,11.79838 0.05969,23.59808 0.05969,35.89727z" fill="#FFFFFF"/>
  <path id="svg_14" d="m251.0038,128.03465c1.85944,7.63132 3.67998,14.85912 5.50316,22.09742c-2.44454,1.35897 -3.9662,2.71089 -4.58209,-1.10865c-1.38738,-8.604 -3.18468,-17.1419 -4.87056,-25.99771c3.35067,-1.24948 2.40301,3.10847 3.94949,5.00894z" fill="#FFFFFF"/>
  <path id="svg_21" d="m65.77214,86.27368c13.6819,12.35404 27.13141,24.43161 40.5228,36.57327c1.24389,1.12782 2.11908,2.66227 3.29296,4.17186c-8.86408,4.00174 -17.11695,7.72756 -25.22788,11.38929c4.55915,10.25988 9.11044,20.50207 13.91494,31.31411c-5.04626,2.42766 -10.00277,4.97205 -15.13564,7.08876c-0.67821,0.27968 -2.77689,-1.37571 -3.33154,-2.55253c-3.41307,-7.24181 -6.67926,-14.55835 -9.78064,-21.93981c-2.47595,-5.89288 -2.82166,-6.74585 -9.05722,-3.84507c-6.36513,2.96106 -12.80671,5.75775 -19.65075,8.82155c0,-31.24258 0,-62.02503 0,-93.34528c8.26974,7.53868 16.23721,14.8018 24.45297,22.32385z" fill="#FFFFFF"/>
 </g>
</svg>