<?xml version="1.0" encoding="UTF-8"?>
<svg id="Layer_1" xmlns="http://www.w3.org/2000/svg" version="1.1" xmlns:xlink="http://www.w3.org/1999/xlink" viewBox="0 0 1024 318">
  <!-- Generator: Adobe Illustrator 29.1.0, SVG Export Plug-In . SVG Version: 2.1.0 Build 142)  -->
  <defs>
    <style>
      .st0, .st1, .st2, .st3, .st4, .st5, .st6 {
        fill: #111;
      }

      .st1 {
        filter: url(#drop-shadow-1);
      }

      .st2 {
        filter: url(#drop-shadow-5);
      }

      .st7 {
        font-family: BerlinSansFBDemi-Bold, 'Berlin Sans FB Demi';
        font-size: 123.6px;
        font-weight: 700;
      }

      .st7, .st8 {
        fill: #da667b;
      }

      .st3 {
        filter: url(#drop-shadow-4);
      }

      .st4 {
        filter: url(#drop-shadow-6);
      }

      .st5 {
        filter: url(#drop-shadow-2);
      }

      .st5, .st9 {
        display: none;
      }

      .st6 {
        filter: url(#drop-shadow-3);
      }
    </style>
    <filter id="drop-shadow-1" x="136.5" y="53.7" width="65.1" height="73.5" filterUnits="userSpaceOnUse">
      <feOffset dx="5" dy="3"/>
      <feGaussianBlur result="blur" stdDeviation="0"/>
      <feFlood flood-color="#000" flood-opacity=".3"/>
      <feComposite in2="blur" operator="in"/>
      <feComposite in="SourceGraphic"/>
    </filter>
    <filter id="drop-shadow-2" x="62.8" y="94.9" width="151.5" height="152.3" filterUnits="userSpaceOnUse">
      <feOffset dx="5" dy="3"/>
      <feGaussianBlur result="blur1" stdDeviation="0"/>
      <feFlood flood-color="#000" flood-opacity=".3"/>
      <feComposite in2="blur1" operator="in"/>
      <feComposite in="SourceGraphic"/>
    </filter>
    <filter id="drop-shadow-3" x="98.9" y="89.1" width="23.1" height="13" filterUnits="userSpaceOnUse">
      <feOffset dx="5" dy="3"/>
      <feGaussianBlur result="blur2" stdDeviation="0"/>
      <feFlood flood-color="#000" flood-opacity=".3"/>
      <feComposite in2="blur2" operator="in"/>
      <feComposite in="SourceGraphic"/>
    </filter>
    <filter id="drop-shadow-4" x="46" y="94" width="26.5" height="14.2" filterUnits="userSpaceOnUse">
      <feOffset dx="5" dy="3"/>
      <feGaussianBlur result="blur3" stdDeviation="0"/>
      <feFlood flood-color="#000" flood-opacity=".3"/>
      <feComposite in2="blur3" operator="in"/>
      <feComposite in="SourceGraphic"/>
    </filter>
    <filter id="drop-shadow-5" x="51.9" y="121.3" width="21.8" height="18.9" filterUnits="userSpaceOnUse">
      <feOffset dx="5" dy="3"/>
      <feGaussianBlur result="blur4" stdDeviation="0"/>
      <feFlood flood-color="#000" flood-opacity=".3"/>
      <feComposite in2="blur4" operator="in"/>
      <feComposite in="SourceGraphic"/>
    </filter>
    <filter id="drop-shadow-6" x="73.6" y="66.3" width="15" height="24.1" filterUnits="userSpaceOnUse">
      <feOffset dx="5" dy="3"/>
      <feGaussianBlur result="blur5" stdDeviation="0"/>
      <feFlood flood-color="#000" flood-opacity=".3"/>
      <feComposite in2="blur5" operator="in"/>
      <feComposite in="SourceGraphic"/>
    </filter>
  </defs>
  <text class="st7" transform="translate(219 212.9)"><tspan x="0" y="0">Link A Doodle</tspan></text>
  <g class="st9">
    <path class="st0" d="M59.6,129c-2-3.1-6.2-4-9.3-1.9l-18.9,12.5c-3.1,2-4,6.2-1.9,9.3,2,3.1,6.2,4,9.3,1.9l18.9-12.5c3.1-2,4-6.2,1.9-9.3Z"/>
    <path class="st0" d="M52.3,100.3c0-3.7-3-6.7-6.7-6.8h-22.7c-3.7-.2-6.7,2.8-6.8,6.5,0,3.7,3,6.7,6.7,6.8h22.7c3.7.2,6.7-2.8,6.8-6.5Z"/>
    <path class="st0" d="M100.2,72.9c3.5,1.2,7.3-.8,8.5-4.3l7-21.6c1.2-3.5-.8-7.3-4.3-8.5-3.5-1.2-7.3.8-8.5,4.3l-7,21.6c-1.2,3.5.8,7.3,4.3,8.5Z"/>
    <path class="st0" d="M156.2,83.4c-1.1-3.5-4.9-5.5-8.4-4.4l-21.6,6.9c-3.5,1.1-5.5,4.9-4.4,8.4,1.1,3.5,4.9,5.5,8.4,4.4l21.6-6.9c3.5-1.1,5.5-4.9,4.4-8.4Z"/>
    <path class="st0" d="M68.4,77.3c3-2.2,3.7-6.4,1.6-9.4l-13.2-18.5c-2.2-3-6.4-3.7-9.4-1.6-3,2.2-3.7,6.4-1.6,9.4l13.2,18.5c2.2,3,6.4,3.7,9.4,1.6Z"/>
  </g>
  <path class="st8" d="M189.7,168.8l-94.2-58c-3.6-2.2-8.1.8-7.5,5l16.6,109.4c.5,3.6,4.6,5.4,7.6,3.4l22-14.5c2.3-1.5,5.3-.9,6.9,1.4l19.1,28.8c1.5,2.3,4.6,2.9,6.9,1.4l16.8-11.1c2.3-1.5,2.9-4.6,1.4-6.9l-19.1-28.8c-1.5-2.3-.9-5.3,1.4-6.9l22.3-14.8c3-2,2.9-6.4-.1-8.3Z"/>
  <path class="st8" d="M189.7,168.8l-94.2-58c-3.6-2.2-8.1.8-7.5,5l16.6,109.4c.5,3.6,4.6,5.4,7.6,3.4l22-14.5c2.3-1.5,5.3-.9,6.9,1.4l19.1,28.8c1.5,2.3,4.6,2.9,6.9,1.4l16.8-11.1c2.3-1.5,2.9-4.6,1.4-6.9l-19.1-28.8c-1.5-2.3-.9-5.3,1.4-6.9l22.3-14.8c3-2,2.9-6.4-.1-8.3Z"/>
  <path class="st1" d="M187.2,102.6c-7.8,12.8-26.4,16.2-37.1,4.7-12.9-13.9,12-23.5,22-26.2s4.1-.9,6.1-1.5,1.4-.8,1.2.7c-.3,2.9-3.1,6.4-5.1,8.4-3.5,3.5-11.9,8.8-17.2,6.4s-1.8-13.1-.8-16.4c1.9-6.4,5.9-11.8,11.5-15.5,5.4-3.5.4-12.2-5-8.6-13.5,8.8-21.7,27.3-16,43.1s12.6,8.6,20,6.7,15.1-7.4,19.3-14.5,7-17.2-2-20.2-9.7.4-13.7,1.5c-5,1.3-9.9,3.1-14.7,5.2-7.4,3.3-14.9,8.6-17.9,16.4-3.1,8,0,16.3,5.8,22.1,15.6,15.4,41.2,11,52.3-7.2,3.4-5.5-5.3-10.5-8.6-5h0Z"/>
  <path class="st5" d="M200.9,196.4c-22.2,24-54.8,34.7-86.7,37.1s-19.4,2.5-24.2-4.9,8.5-15,13.2-18.8c14.4-11.6,30.1-20.8,45.9-30.2s28.4-17.2,33.6-31.5-.5-14.5-7.4-18.1-14.9-2.8-21.8.2c-15,6.4-25.5,20.8-36.9,31.9-6.1,5.9-12.5,11.5-19.8,15.8s-16.5,8.9-21.7,1.9,0-19,5.3-25.4,14.2-13.8,22.1-19.5c16.7-12,35-21.4,53.2-30.9,5.7-3,.7-11.6-5-8.6-17.4,9-34.9,18.1-51,29.3s-31.1,22.1-35.7,39.6-1.2,16.6,4.2,22.7,14.3,7,22,4.8c16.7-4.7,30-18.8,41.7-30.8s12.7-13.9,20.6-18.9c3.6-2.2,7.6-4.2,11.8-4.5s10.3,1.3,9.4,6.3-4.3,7.4-6.8,10.1-6.9,6.5-10.7,9.3c-7,5.1-14.7,9.2-22.1,13.6-16.9,9.9-34.4,21.2-48.5,35-5.9,5.8-8.5,13.5-4.3,21.1,4.2,7.6,12.7,10.5,20.9,10.9,18.9,1,39.6-3.2,57.4-9.5s35.4-16.6,48.7-31-2.7-11.8-7.1-7.1h0Z"/>
  <g>
    <polygon class="st8" points="161.1 151.3 128 130.9 94 155.2 100.1 195.3 161.1 151.3"/>
    <path class="st8" d="M172.4,208.4l-24.4,17.6,12.1,18.2c1.5,2.3,4.6,2.9,6.9,1.4l16.8-11.1c2.3-1.5,2.9-4.6,1.4-6.9l-12.7-19.2Z"/>
  </g>
  <path class="st6" d="M103.9,99.1h8c2.6,0,5.1-2.3,5-5s-2.2-5-5-5h-8c-2.6,0-5.1,2.3-5,5s2.2,5,5,5h0Z"/>
  <path class="st3" d="M62.5,95.1l-11.5-1.1c-2.7-.3-5,2.5-5,5s2.3,4.7,5,5l11.5,1.1c2.7.3,5-2.5,5-5s-2.3-4.7-5-5h0Z"/>
  <path class="st2" d="M59.3,123.8c.3-.4.2-.2,0,0s-.5.6-.8.8c-.5.5-1,1-1.5,1.4s-.5.4-.7.6c.4-.3.2-.2,0,0-.6.4-1.3.8-1.9,1.2-2.3,1.3-3.2,4.6-1.8,6.8s4.4,3.2,6.8,1.8c3.4-2,6.2-4.6,8.5-7.7s.4-5.7-1.8-6.8-5.2-.5-6.8,1.8h0Z"/>
  <path class="st4" d="M83.6,82.7v-11.5c0-6.4-10-6.4-10,0v11.5c0,6.4,10,6.4,10,0h0Z"/>
</svg>