<?xml version="1.0" encoding="UTF-8"?>
<svg id="Round_QR_Icon" data-name="Round QR Icon" xmlns="http://www.w3.org/2000/svg" viewBox="0 0 706.21 697.27">
  <defs>
    <style>
      .cls-1 {
        fill: #231f20;
      }
    </style>
  </defs>
  <path class="cls-1" d="M442.58,0h0c-50.09,0-90.7,39.63-90.7,88.51v88.51s-88.36,0-88.36,0c-45.79,0-86.22,43.7-85.6,87.77.74,52.82,30.65,86.32,83.26,86.32h161.45c61.11,0,110.65-48.34,110.65-107.98V88.51c0-48.88-40.61-88.51-90.7-88.51Z"/>
  <rect class="cls-1" x="0" y="351.12" width="176.13" height="171.89" rx="85.94" ry="85.94"/>
  <path class="cls-1" d="M616.03,351.12h90.19v171.89h-90.19c-47.43,0-85.94-38.51-85.94-85.94h0c0-47.43,38.51-85.94,85.94-85.94Z"/>
  <path class="cls-1" d="M263.27,523h179.68c48.09,0,87.14,39.04,87.14,87.14v87.14h-266.82c-48.09,0-87.14-39.04-87.14-87.14h0c0-48.09,39.04-87.14,87.14-87.14Z"/>
</svg>