<?xml version="1.0" encoding="UTF-8"?>
<svg id="Classy_QR_Icon" data-name="Classy QR Icon" xmlns="http://www.w3.org/2000/svg" viewBox="0 0 711.48 699.16">
  <defs>
    <style>
      .cls-1 {
        fill: #231f20;
      }
    </style>
  </defs>
  <path class="cls-1" d="M358.42,524.79h176.13v64.96c0,59.02-47.91,106.93-106.93,106.93h-69.2v-171.89h0Z"/>
  <path class="cls-1" d="M88.37,347.47h95.48v90.58c0,47.21-38.33,85.55-85.55,85.55H2.82v-90.58c0-47.21,38.33-85.55,85.55-85.55Z"/>
  <path class="cls-1" d="M616.01,347.47h95.48v90.58c0,47.21-38.33,85.55-85.55,85.55h-95.48v-90.58c0-47.21,38.33-85.55,85.55-85.55Z"/>
  <path class="cls-1" d="M295.32,524.79h64.65v171.89h-176.13v-60.41c0-61.52,49.95-111.48,111.48-111.48Z"/>
  <path class="cls-1" d="M359.97,169.59h0v176.13h-176.13c0-97.21,78.92-176.13,176.13-176.13Z"/>
  <path class="cls-1" d="M359.14,172.93h176.96c0,94.87-77.02,171.89-171.88,171.89h-5.08v-171.89h0Z"/>
  <path class="cls-1" d="M531.86.6h4.24v171.89h-176.13C359.97,77.62,436.99.6,531.86.6Z"/>
</svg>